<svg width="457" height="244" viewBox="0 0 457 244" fill="none" xmlns="http://www.w3.org/2000/svg">
<path d="M456.901 243.381C407.57 234.448 353.623 235.933 297.036 243.381C322.828 221.229 345.087 199.076 319.296 176.924C369.606 187.483 376.652 186.415 432.618 176.924C419.637 199.076 443.92 221.229 456.901 243.381Z" fill="#6C63FF"/>
<path opacity="0.2" d="M456.901 243.381C407.57 234.448 353.623 235.933 297.036 243.381C322.828 221.229 345.087 199.076 319.296 176.924C369.606 187.483 376.652 186.415 432.618 176.924C419.637 199.076 443.92 221.229 456.901 243.381Z" fill="black"/>
<path d="M444.868 233.93C402.963 226.8 357.138 227.985 309.069 233.93C330.978 216.248 349.887 198.565 327.977 180.883C370.714 189.312 376.7 188.458 424.24 180.883C413.214 198.565 433.842 216.248 444.868 233.93Z" fill="#6C63FF"/>
<path d="M428.907 205.439C441.239 205.439 451.235 195.269 451.235 182.723C451.235 170.177 441.239 160.006 428.907 160.006C416.576 160.006 406.579 170.177 406.579 182.723C406.579 195.269 416.576 205.439 428.907 205.439Z" fill="#2F2E41"/>
<path d="M327.547 156.374L343.018 158.998L350.754 181.733L328.407 195.725L302.622 156.374H326.688H327.547Z" fill="#A0616A"/>
<path d="M371.382 191.352C391.319 191.352 407.481 174.909 407.481 154.626C407.481 134.342 391.319 117.899 371.382 117.899C351.445 117.899 335.283 134.342 335.283 154.626C335.283 174.909 351.445 191.352 371.382 191.352Z" fill="#A0616A"/>
<path d="M171.98 20.8368C171.98 20.8368 84.3116 30.4556 68.8408 28.7068C53.3699 26.9579 46.494 25.209 46.494 25.209C46.494 25.209 36.1801 39.2 41.337 45.3211C44.2252 48.8482 47.7201 51.8113 51.6509 54.0655C51.6509 54.0655 61.1053 51.4421 67.9813 54.0655C74.8573 56.6888 144.476 68.0565 156.509 57.5632C168.542 47.0699 171.98 20.8368 171.98 20.8368Z" fill="#2F2E41"/>
<path d="M177.996 215.836C177.996 215.836 120.41 199.222 110.096 125.769V118.774C110.096 118.774 98.7025 139.11 94.6256 143.258C89.8984 148.067 73.1383 191.352 73.9978 195.724C74.8573 200.096 73.9978 201.845 73.9978 201.845L49.0725 199.222V191.352C49.0725 191.352 62.3946 150.691 63.2541 141.072C64.1136 131.453 96.3445 64.5586 96.3445 64.5586C96.3445 64.5586 108.377 39.1999 129.005 64.5586C149.633 89.9173 151.352 107.406 151.352 107.406L177.996 159.872L177.996 215.836Z" fill="#2F2E41"/>
<path d="M49.0725 22.5856L21.5687 12.9668C21.5687 12.9668 -4.21602 -6.27083 1.80042 12.9668C7.81686 32.2044 35.3206 74.1775 43.056 69.8053C50.7914 65.4331 60.0945 54.5805 58.0215 53.0113C55.9484 51.4421 42.1965 40.0744 49.0725 22.5856Z" fill="#2F2E41"/>
<path d="M52.397 186.19L30.1947 197.221C30.1947 197.221 3.34538 201.424 18.319 209.303C33.2927 217.183 74.5993 225.588 76.6647 218.234C78.73 210.879 77.9106 198.674 75.7386 198.998C73.5667 199.322 58.593 200.898 52.397 186.19Z" fill="#2F2E41"/>
<path d="M166.823 158.124C166.823 158.124 155.649 207.092 174.558 217.585C193.467 228.078 325.829 229.827 336.143 210.59C346.456 191.352 341.3 191.352 341.3 191.352L313.796 159.872L336.143 158.124C336.143 158.124 336.143 151.128 328.407 150.254C320.672 149.379 296.606 140.635 275.978 146.756C255.35 152.877 243.318 134.514 243.318 134.514L166.823 158.124Z" fill="#575A89"/>
<path d="M152.212 5.09676L137.6 86.4199L238.161 74.1777L256.21 0.724609L152.212 5.09676Z" fill="#3F3D56"/>
<path d="M155.22 8.15749L143.187 80.7355L234.723 69.8056L252.342 3.78534L155.22 8.15749Z" fill="white"/>
<path d="M141.038 87.2942L137.6 86.4199L135.881 89.917L163.385 167.742L165.972 166.736L166.823 161.622L141.038 87.2942Z" fill="#B3B3B3"/>
<path d="M137.6 85.5449L165.104 166.868L269.102 151.128L238.161 74.1777L137.6 85.5449Z" fill="#D0CDE1"/>
<path d="M151.352 82.922V87.2942L227.847 78.5499L226.987 74.1777L151.352 82.922Z" fill="#3F3D56"/>
<path d="M153.071 91.6664L165.104 125.769L243.318 116.151L229.566 83.7963L153.071 91.6664Z" fill="#3F3D56"/>
<path d="M251.053 139.76L248.475 132.765C248.475 132.765 228.706 97.7873 218.392 104.783C208.078 111.778 239.88 145.881 239.88 145.881H250.193L251.053 139.76Z" fill="#A0616A"/>
<path d="M185.732 145.007L183.153 134.514C183.153 134.514 176.277 102.159 188.31 103.908C200.343 105.657 203.781 136.263 203.781 136.263L202.921 143.258L185.732 145.007Z" fill="#A0616A"/>
<path d="M206.359 140.635C206.359 140.635 184.013 137.137 183.153 142.384C182.294 147.63 177.996 226.33 199.483 228.953C220.971 231.576 327.548 242.944 316.374 215.836C305.201 188.729 288.011 192.227 288.011 192.227L214.954 200.097L206.359 140.635Z" fill="#575A89"/>
<path d="M273.829 150.691L251.053 134.514L236.012 146.319L254.921 167.305L273.829 150.691Z" fill="#575A89"/>
<path opacity="0.2" d="M212.806 166.431L216.243 199.66L275.549 196.162L223.979 195.287L212.806 166.431Z" fill="black"/>
<path d="M389.201 205.021C412.935 205.021 432.176 185.446 432.176 161.299C432.176 137.152 412.935 117.577 389.201 117.577C365.467 117.577 346.227 137.152 346.227 161.299C346.227 185.446 365.467 205.021 389.201 205.021Z" fill="#2F2E41"/>
<path d="M168.112 33.5161L221.401 31.6289L226.558 11.6554L171.55 13.3443L168.112 33.5161Z" fill="#6C63FF"/>
<path d="M154.361 44.8841L235.152 42.2605L236.012 38.7626L155.22 41.6567L154.361 44.8841Z" fill="#E6E6E6"/>
<path d="M152.641 53.6284L233.434 51.0048L234.293 47.5069L153.501 50.401L152.641 53.6284Z" fill="#E6E6E6"/>
<path d="M151.782 60.6234L232.574 58.0006L233.434 54.5027L152.641 57.396L151.782 60.6234Z" fill="#E6E6E6"/>
</svg>
