<svg width="612" height="458" viewBox="0 0 612 458" fill="none" xmlns="http://www.w3.org/2000/svg">
<g clip-path="url(#clip0)">
<path d="M616 169.591H359.174V177.255H616V169.591Z" fill="#E6E6E6"/>
<path d="M445.468 105.487H380.405V171.681H445.468V105.487Z" fill="#E6E6E6"/>
<path d="M432.455 118.726H393.418V158.442H432.455V118.726Z" fill="#CCCCCC"/>
<path d="M542.719 105.487H526.282V171.681H542.719V105.487Z" fill="#E6E6E6"/>
<path d="M542.719 115.939H526.282V123.603H542.719V115.939Z" fill="#CCCCCC"/>
<path d="M542.719 149.384H526.282V157.049H542.719V149.384Z" fill="#CCCCCC"/>
<path d="M517.379 105.487H500.942V171.681H517.379V105.487Z" fill="#E6E6E6"/>
<path d="M517.379 115.939H500.942V123.603H517.379V115.939Z" fill="#CCCCCC"/>
<path d="M517.379 149.384H500.942V157.049H517.379V149.384Z" fill="#CCCCCC"/>
<path d="M556.881 105.214L542.151 112.633L571.019 171.955L585.749 164.535L556.881 105.214Z" fill="#E6E6E6"/>
<path d="M561.439 114.58L546.709 122L550.052 128.869L564.782 121.449L561.439 114.58Z" fill="#CCCCCC"/>
<path d="M576.025 144.553L561.295 151.973L564.637 158.842L579.368 151.422L576.025 144.553Z" fill="#CCCCCC"/>
<path d="M404.718 132.058L412.996 146.644L421.273 161.23H404.718H388.163L396.44 146.644L404.718 132.058Z" fill="#E6E6E6"/>
<path d="M419.1 134.845L427.377 149.431L435.655 164.017H419.1H402.546L410.823 149.431L419.1 134.845Z" fill="#E6E6E6"/>
<path d="M424.922 130.571C427.569 130.571 429.716 128.388 429.716 125.694C429.716 123 427.569 120.816 424.922 120.816C422.274 120.816 420.127 123 420.127 125.694C420.127 128.388 422.274 130.571 424.922 130.571Z" fill="#E6E6E6"/>
<path d="M359.174 72.0419L616 72.0419V64.3773L359.174 64.3773V72.0419Z" fill="#E6E6E6"/>
<path d="M529.706 66.4677L594.769 66.4677V0.27372L529.706 0.27372V66.4677Z" fill="#E6E6E6"/>
<path d="M542.719 53.2289L581.757 53.2289V13.5125L542.719 13.5125V53.2289Z" fill="#CCCCCC"/>
<path d="M432.455 66.4677H448.892V0.27372H432.455V66.4677Z" fill="#E6E6E6"/>
<path d="M432.455 18.39L448.892 18.39V10.7254L432.455 10.7254V18.39Z" fill="#CCCCCC"/>
<path d="M432.455 51.8353H448.892V44.1708H432.455V51.8353Z" fill="#CCCCCC"/>
<path d="M457.795 66.4677H474.232V0.27372H457.795V66.4677Z" fill="#E6E6E6"/>
<path d="M457.795 18.39L474.232 18.39V10.7254L457.795 10.7254V18.39Z" fill="#CCCCCC"/>
<path d="M457.795 51.8353H474.232V44.1708H457.795V51.8353Z" fill="#CCCCCC"/>
<path d="M389.425 59.3217L404.156 66.7414L433.023 7.41972L418.293 2.85474e-05L389.425 59.3217Z" fill="#E6E6E6"/>
<path d="M410.392 16.2355L425.123 23.6552L428.465 16.7863L413.735 9.36664L410.392 16.2355Z" fill="#CCCCCC"/>
<path d="M395.807 46.2085L410.537 53.6282L413.879 46.7593L399.149 39.3397L395.807 46.2085Z" fill="#CCCCCC"/>
<path d="M570.456 26.8437L562.179 41.4297L553.902 56.0157H570.456H587.011L578.733 41.4297L570.456 26.8437Z" fill="#E6E6E6"/>
<path d="M556.074 29.6309L547.797 44.2169L539.519 58.8028H556.074H572.629L564.352 44.2169L556.074 29.6309Z" fill="#E6E6E6"/>
<path d="M550.253 25.3577C552.9 25.3577 555.047 23.174 555.047 20.4803C555.047 17.7865 552.9 15.6028 550.253 15.6028C547.605 15.6028 545.458 17.7865 545.458 20.4803C545.458 23.174 547.605 25.3577 550.253 25.3577Z" fill="#E6E6E6"/>
<path d="M359.174 282.469L616 282.469V274.804L359.174 274.804V282.469Z" fill="#E6E6E6"/>
<path d="M529.706 276.895H594.769V210.701H529.706V276.895Z" fill="#E6E6E6"/>
<path d="M542.719 263.656H581.757V223.94H542.719V263.656Z" fill="#CCCCCC"/>
<path d="M432.455 276.895H448.892V210.701H432.455V276.895Z" fill="#E6E6E6"/>
<path d="M432.455 228.817H448.892V221.152H432.455V228.817Z" fill="#CCCCCC"/>
<path d="M432.455 262.262H448.892V254.598H432.455V262.262Z" fill="#CCCCCC"/>
<path d="M457.795 276.895H474.232V210.701H457.795V276.895Z" fill="#E6E6E6"/>
<path d="M457.795 228.817H474.232V221.152H457.795V228.817Z" fill="#CCCCCC"/>
<path d="M457.795 262.262H474.232V254.598H457.795V262.262Z" fill="#CCCCCC"/>
<path d="M389.425 269.749L404.156 277.168L433.023 217.847L418.293 210.427L389.425 269.749Z" fill="#E6E6E6"/>
<path d="M410.392 226.662L425.123 234.082L428.465 227.213L413.735 219.794L410.392 226.662Z" fill="#CCCCCC"/>
<path d="M395.806 256.636L410.537 264.055L413.879 257.186L399.149 249.767L395.806 256.636Z" fill="#CCCCCC"/>
<path d="M570.456 237.271L562.179 251.857L553.902 266.443H570.456H587.011L578.733 251.857L570.456 237.271Z" fill="#E6E6E6"/>
<path d="M556.074 240.058L547.797 254.644L539.519 269.231H556.074H572.629L564.352 254.644L556.074 240.058Z" fill="#E6E6E6"/>
<path d="M550.253 235.785C552.9 235.785 555.047 233.601 555.047 230.907C555.047 228.214 552.9 226.03 550.253 226.03C547.605 226.03 545.458 228.214 545.458 230.907C545.458 233.601 547.605 235.785 550.253 235.785Z" fill="#E6E6E6"/>
<path d="M307.541 458C474.63 458 610.082 448.213 610.082 436.139C610.082 424.066 474.63 414.278 307.541 414.278C140.452 414.278 5 424.066 5 436.139C5 448.213 140.452 458 307.541 458Z" fill="#E6E6E6"/>
<path d="M543.901 448.381C494.57 439.448 440.623 440.933 384.036 448.381C409.828 426.229 432.087 404.076 406.296 381.924C456.606 392.483 463.652 391.415 519.618 381.924C506.637 404.076 530.92 426.229 543.901 448.381Z" fill="#6C63FF"/>
<path opacity="0.2" d="M543.901 448.381C494.57 439.448 440.623 440.933 384.036 448.381C409.828 426.229 432.087 404.076 406.296 381.924C456.606 392.483 463.652 391.415 519.618 381.924C506.637 404.076 530.92 426.229 543.901 448.381Z" fill="black"/>
<path d="M531.868 438.93C489.963 431.8 444.138 432.985 396.069 438.93C417.978 421.248 436.887 403.565 414.977 385.883C457.714 394.312 463.7 393.458 511.24 385.883C500.214 403.565 520.842 421.248 531.868 438.93Z" fill="#6C63FF"/>
<path d="M515.907 410.439C528.239 410.439 538.235 400.269 538.235 387.723C538.235 375.177 528.239 365.006 515.907 365.006C503.576 365.006 493.579 375.177 493.579 387.723C493.579 400.269 503.576 410.439 515.907 410.439Z" fill="#2F2E41"/>
<path d="M414.547 361.374L430.018 363.998L437.754 386.733L415.407 400.725L389.622 361.374H413.688H414.547Z" fill="#A0616A"/>
<path d="M458.382 396.352C478.319 396.352 494.481 379.909 494.481 359.626C494.481 339.342 478.319 322.899 458.382 322.899C438.445 322.899 422.283 339.342 422.283 359.626C422.283 379.909 438.445 396.352 458.382 396.352Z" fill="#A0616A"/>
<path d="M258.98 225.837C258.98 225.837 171.312 235.456 155.841 233.707C140.37 231.958 133.494 230.209 133.494 230.209C133.494 230.209 123.18 244.2 128.337 250.321C131.225 253.848 134.72 256.811 138.651 259.065C138.651 259.065 148.105 256.442 154.981 259.065C161.857 261.689 231.476 273.056 243.509 262.563C255.542 252.07 258.98 225.837 258.98 225.837Z" fill="#2F2E41"/>
<path d="M264.996 420.836C264.996 420.836 207.41 404.222 197.096 330.769V323.774C197.096 323.774 185.703 344.11 181.626 348.258C176.898 353.067 160.138 396.352 160.998 400.724C161.857 405.096 160.998 406.845 160.998 406.845L136.073 404.222V396.352C136.073 396.352 149.395 355.691 150.254 346.072C151.114 336.453 183.345 269.559 183.345 269.559C183.345 269.559 195.377 244.2 216.005 269.559C236.633 294.917 238.352 312.406 238.352 312.406L264.996 364.872L264.996 420.836Z" fill="#2F2E41"/>
<path d="M136.072 227.586L108.569 217.967C108.569 217.967 82.784 198.729 88.8004 217.967C94.8169 237.204 122.321 279.177 130.056 274.805C137.791 270.433 147.095 259.58 145.021 258.011C142.948 256.442 129.197 245.074 136.072 227.586Z" fill="#2F2E41"/>
<path d="M139.397 391.19L117.195 402.221C117.195 402.221 90.3454 406.424 105.319 414.303C120.293 422.183 161.599 430.588 163.665 423.234C165.73 415.879 164.911 403.674 162.739 403.998C160.567 404.322 145.593 405.898 139.397 391.19Z" fill="#2F2E41"/>
<path d="M253.823 363.124C253.823 363.124 242.649 412.092 261.558 422.585C280.467 433.078 412.829 434.827 423.143 415.59C433.456 396.352 428.3 396.352 428.3 396.352L400.796 364.872L423.143 363.124C423.143 363.124 423.143 356.128 415.407 355.254C407.672 354.379 383.606 345.635 362.978 351.756C342.35 357.877 330.318 339.514 330.318 339.514L253.823 363.124Z" fill="#575A89"/>
<path d="M239.212 210.097L224.6 291.42L325.161 279.178L343.21 205.725L239.212 210.097Z" fill="#3F3D56"/>
<path d="M242.22 213.157L230.187 285.736L321.723 274.806L339.342 208.785L242.22 213.157Z" fill="white"/>
<path d="M228.038 292.294L224.6 291.42L222.881 294.917L250.385 372.742L252.972 371.736L253.823 366.622L228.038 292.294Z" fill="#B3B3B3"/>
<path d="M224.6 290.545L252.104 371.868L356.102 356.128L325.161 279.178L224.6 290.545Z" fill="#D0CDE1"/>
<path d="M238.352 287.922V292.294L314.847 283.55L313.987 279.178L238.352 287.922Z" fill="#3F3D56"/>
<path d="M240.071 296.666L252.104 330.769L330.318 321.151L316.566 288.796L240.071 296.666Z" fill="#3F3D56"/>
<path d="M338.053 344.76L335.475 337.765C335.475 337.765 315.706 302.787 305.392 309.783C295.078 316.778 326.88 350.881 326.88 350.881H337.193L338.053 344.76Z" fill="#A0616A"/>
<path d="M272.732 350.007L270.153 339.514C270.153 339.514 263.277 307.159 275.31 308.908C287.343 310.657 290.781 341.263 290.781 341.263L289.921 348.258L272.732 350.007Z" fill="#A0616A"/>
<path d="M293.359 345.635C293.359 345.635 271.013 342.137 270.153 347.384C269.294 352.63 264.996 431.33 286.483 433.953C307.971 436.576 414.548 447.944 403.374 420.836C392.201 393.729 375.011 397.227 375.011 397.227L301.954 405.097L293.359 345.635Z" fill="#575A89"/>
<path d="M360.829 355.691L338.053 339.514L323.012 351.319L341.921 372.305L360.829 355.691Z" fill="#575A89"/>
<path opacity="0.2" d="M299.806 371.431L303.243 404.66L362.549 401.162L310.979 400.287L299.806 371.431Z" fill="black"/>
<path d="M476.201 410.021C499.935 410.021 519.176 390.446 519.176 366.299C519.176 342.152 499.935 322.577 476.201 322.577C452.467 322.577 433.227 342.152 433.227 366.299C433.227 390.446 452.467 410.021 476.201 410.021Z" fill="#2F2E41"/>
<path d="M255.112 238.516L308.401 236.629L313.558 216.655L258.55 218.344L255.112 238.516Z" fill="#6C63FF"/>
<path d="M241.361 249.884L322.152 247.26L323.012 243.763L242.22 246.657L241.361 249.884Z" fill="#E6E6E6"/>
<path d="M239.641 258.628L320.434 256.005L321.293 252.507L240.501 255.401L239.641 258.628Z" fill="#E6E6E6"/>
<path d="M238.782 265.623L319.574 263.001L320.434 259.503L239.641 262.396L238.782 265.623Z" fill="#E6E6E6"/>
</g>
<defs>
<clipPath id="clip0">
<rect width="611" height="458" fill="white" transform="matrix(-1 0 0 1 611.5 0)"/>
</clipPath>
</defs>
</svg>
