<svg width="1150" height="1150" viewBox="0 0 1150 1150" fill="none" xmlns="http://www.w3.org/2000/svg">
<rect width="1150" height="1150" fill="#0C0B26"/>
<path opacity="0.07" d="M720.6 666.6C382.3 231 627 73.7 720.7 328.9C814.4 181.8 1059.1 621.7 720.6 666.6Z" fill="url(#paint0_linear)"/>
<path opacity="0.4" d="M688.6 706.6C350.3 271 595 113.7 688.7 368.9C782.4 221.8 1027.1 661.7 688.6 706.6Z" fill="url(#paint1_linear)"/>
<path opacity="0.2" d="M300.3 515.4C306.3 518.8 311.1 527.2 311.1 534.1V564.6L331.3 576.2C337.3 579.6 342.1 588 342.1 594.9C342.1 601.8 337.3 604.6 331.3 601.2L311.1 589.6V620.1C311.1 627 306.3 629.8 300.3 626.4C294.3 623 289.5 614.6 289.5 607.7V577.2L269.3 565.6C263.3 562.2 258.5 553.8 258.5 546.9C258.5 540 263.3 537.2 269.3 540.6L289.5 552.2V521.7C289.5 514.7 294.3 511.9 300.3 515.4Z" fill="url(#paint2_linear)"/>
<path opacity="0.25" d="M382.7 483.5L569.6 591.4V937.7L382.7 829.7V483.5V483.5Z" fill="url(#paint3_linear)"/>
<path opacity="0.15" d="M401.1 689L551.2 775.6V789.2L401.1 702.6V689Z" fill="#0C0B26"/>
<path opacity="0.15" d="M411.6 721.3L540.7 795.8V809.4L411.6 734.9V721.3Z" fill="#0C0B26"/>
<path fill-rule="evenodd" clip-rule="evenodd" d="M466.1 786.6L336.1 711.5V750.2L466.1 825.3V786.6Z" fill="#F2EA7E"/>
<path fill-rule="evenodd" clip-rule="evenodd" d="M497.4 619.6C497.4 636.4 487.7 644.3 475.7 637.3C463.7 630.3 454 611.1 454 594.3C454 577.5 463.7 569.6 475.7 576.6C487.7 583.6 497.4 602.8 497.4 619.6Z" fill="#F2EA7E"/>
<path fill-rule="evenodd" clip-rule="evenodd" d="M475.7 650.8C456.4 639.5 440.5 650.1 437.6 674.4C437.1 678.6 440.3 684.2 444.2 686.4L507.1 723.2C511 725.5 514.2 723.6 513.7 718.9C511 691.2 495 662 475.7 650.8Z" fill="#F2EA7E"/>
<path opacity="0.25" d="M913.8 788.4L616.1 616.6V771.7L913.8 943.5V788.4Z" fill="url(#paint4_linear)"/>
<path opacity="0.15" d="M712.8 727.5L798.5 777V790.6L712.8 741.1V727.5Z" fill="#0C0B26"/>
<path opacity="0.15" d="M712.8 753.6L887.7 854.5V868.1L712.8 767.2V753.6Z" fill="#0C0B26"/>
<path fill-rule="evenodd" clip-rule="evenodd" d="M947.2 836.8L817.2 761.7V800.4L947.2 875.5V836.8Z" fill="#F21D44"/>
<path fill-rule="evenodd" clip-rule="evenodd" d="M686.6 733.1C686.6 750.3 676.5 758.5 664.1 751.3C651.7 744.1 641.6 724.3 641.6 707.1C641.6 689.9 651.7 681.7 664.1 688.9C676.5 696.1 686.6 715.9 686.6 733.1Z" fill="#F21D44"/>
<path opacity="0.25" d="M500.8 418.4L203.1 246.6V401.7L500.8 573.5V418.4Z" fill="url(#paint5_linear)"/>
<path opacity="0.15" d="M299.9 358.7L446.2 443.2V456.8L299.9 372.3V358.7Z" fill="#0C0B26"/>
<path opacity="0.15" d="M299.9 384.8L474.8 485.7V499.3L299.9 398.4V384.8Z" fill="#0C0B26"/>
<path fill-rule="evenodd" clip-rule="evenodd" d="M259.4 328C259.4 326.3 258.2 324.3 256.8 323.5L245.3 316.9C243.9 316.1 242.7 316.7 242.7 318.4V329.8C242.7 332.1 240.2 333.6 238.2 332.4L231.1 328.3C229.7 327.5 228.5 328.1 228.5 329.8V346.9C228.5 348.6 229.7 350.6 231.1 351.4L241.2 357.2C242.1 357.7 242.7 358.7 242.7 359.8V374.7C242.7 376.4 243.9 378.4 245.3 379.2L256.8 385.8C258.2 386.6 259.4 386 259.4 384.3V372.9C259.4 370.6 261.9 369.1 263.9 370.3L271 374.4C272.4 375.2 273.6 374.6 273.6 372.9V355.8C273.6 354.1 272.4 352.1 271 351.3L260.9 345.5C260 345 259.4 344 259.4 342.9V328Z" fill="#F21D44"/>
<defs>
<linearGradient id="paint0_linear" x1="824.895" y1="128.133" x2="515.66" y2="226.419" gradientUnits="userSpaceOnUse">
<stop stop-color="white"/>
<stop offset="1" stop-color="white" stop-opacity="0.01"/>
</linearGradient>
<linearGradient id="paint1_linear" x1="792.895" y1="168.134" x2="483.659" y2="266.419" gradientUnits="userSpaceOnUse">
<stop stop-color="white"/>
<stop offset="1" stop-color="white" stop-opacity="0.01"/>
</linearGradient>
<linearGradient id="paint2_linear" x1="306.062" y1="518.671" x2="246.839" y2="543.827" gradientUnits="userSpaceOnUse">
<stop stop-color="white"/>
<stop offset="1" stop-color="white" stop-opacity="0.01"/>
</linearGradient>
<linearGradient id="paint3_linear" x1="530.503" y1="312.378" x2="300.098" y2="379.969" gradientUnits="userSpaceOnUse">
<stop stop-color="white"/>
<stop offset="1" stop-color="white" stop-opacity="0.01"/>
</linearGradient>
<linearGradient id="paint4_linear" x1="647.244" y1="649.183" x2="647.774" y2="907.195" gradientUnits="userSpaceOnUse">
<stop stop-color="white"/>
<stop offset="1" stop-color="white" stop-opacity="0.01"/>
</linearGradient>
<linearGradient id="paint5_linear" x1="234.244" y1="279.183" x2="234.774" y2="537.195" gradientUnits="userSpaceOnUse">
<stop stop-color="white"/>
<stop offset="1" stop-color="white" stop-opacity="0.01"/>
</linearGradient>
</defs>
</svg>
