<svg width="765" height="574" viewBox="0 0 765 574" fill="none" xmlns="http://www.w3.org/2000/svg">
<path fill-rule="evenodd" clip-rule="evenodd" d="M494.18 218.238C488.483 229.376 482.464 240.218 476.388 251.153C473.17 256.942 462.795 280.884 460.115 281.799C457.23 282.784 439.554 272.389 434.481 270.353C425.466 266.735 416.9 263.309 407.483 261.077C396.939 258.579 386.311 256.737 375.374 257.665C370.583 258.073 362.655 259.231 367.416 252.501C370.886 247.594 374.248 243.075 378.962 239.53C382.393 236.949 387.422 232.216 391.439 230.492C395.653 228.683 401.869 229.084 406.399 229.19C411.295 229.306 434.634 236.588 435.918 228.998C438.298 231.164 439.685 230.327 442.412 231.384C445.487 232.577 447.404 234.891 450.457 236.289C452.437 237.196 456.088 240.782 458.29 240.804C461.217 240.833 462.005 238.409 464.107 236.62C468.817 232.61 475.087 229.971 480.197 226.488C484.696 223.419 488.98 220.221 494.18 218.238ZM442.905 130.199C442.505 135.284 443.877 140.008 443.844 145.24C443.83 147.523 443.726 149.805 444.42 152.005C445.042 153.977 444.607 157.519 444.937 159.583C439.113 157.81 428.293 155.181 422.347 157.572C416.662 159.858 415.947 170.427 415.746 175.568C415.61 179.072 417.165 184.47 415.986 187.824C415.436 189.389 415.432 189.894 415.466 190.035L415.471 190.05C415.358 189.992 414.902 189.993 413.292 191.155C411.696 192.305 409.791 192.94 408.214 194.21C405.346 196.524 404.854 199.147 403.439 202.5C402.064 205.758 398.401 208.653 394.313 208.534C397.599 202.578 402.163 197.015 399.544 190.018C397.568 184.738 401.031 178.541 403.755 173.525C404.657 171.864 414.656 159.136 410.225 158.239C407.349 157.655 400.745 171.166 399.481 173.525C395.958 171.143 394.375 168.206 397.087 164.618C399.17 161.863 401.728 159.506 403.755 156.653C407.047 152.023 410.255 146.495 414.165 142.382C421.032 135.16 433.018 130.243 442.905 130.199ZM415.471 190.05C415.509 190.077 415.493 190.102 415.475 190.063L415.471 190.05ZM535.185 122.308C539.573 126.512 545.123 129.998 549.363 134.409C553.075 138.271 558.073 144.767 559.836 149.926C550.789 151.67 535.756 157.011 532.154 166.506C518.083 153.589 512.64 177.204 509.848 187.078C501.613 183.515 503.255 171.652 503.364 164.725C503.449 159.231 506.795 152.728 498.817 152.278C492.855 151.943 487.065 154.371 481.688 156.644C474.979 159.481 467.941 163.725 462.521 168.6L456.875 164.204C466.138 159.004 470.966 149.061 476.388 139.956C478.117 137.054 480.427 133.826 481.688 130.689C482.561 128.519 483.175 124.14 484.131 122.211C485.636 119.178 500.332 118.343 504.225 117.562C514.503 115.499 526.787 114.262 535.185 122.308Z" fill="#FC9E1E"/>
<path fill-rule="evenodd" clip-rule="evenodd" d="M532.843 189.703C536.639 189.509 540.419 190.357 544.215 189.988C540.919 187.117 537.624 184.246 534.327 181.376C532.871 183.933 532.765 186.842 532.843 189.703ZM442.777 130.689C432.951 130.732 420.965 135.667 414.139 142.876C410.522 146.696 407.534 151.825 404.475 156.117C402.424 158.997 400.421 161.776 397.93 164.307C394.299 167.995 395.339 168.838 399.43 171.615C400.725 169.189 407.59 156.216 410.468 156.799C414.84 157.687 406.396 171.39 405.473 173.097C402.742 178.148 398.331 185.203 400.313 190.53C402.928 197.562 399.136 201.569 395.843 207.561C399.301 207.661 399.642 206.313 400.833 203.364C402.364 199.573 404.034 196.407 407.27 193.786C409.776 191.758 413.876 190.903 415.053 188.453C416.51 185.425 415.596 179.444 415.714 176.075C415.893 170.956 415.906 158.853 421.547 156.579C427.458 154.196 438.085 156.442 443.863 158.207C443.142 153.696 440.866 150.749 440.897 145.735C440.931 140.488 442.376 135.805 442.777 130.689ZM367.29 214.413C372.43 212.785 377.303 211.071 382.591 209.962C388.125 208.801 388.495 207.473 391.615 202.727C393.979 199.13 396.848 196.325 396.178 191.92C395.749 189.094 394.201 187.717 394.667 184.539C394.955 182.569 395.874 180.419 396.539 178.546C397.353 176.248 399.041 173.641 395.116 173.528C392.949 173.465 392.843 174.608 391.376 176.528C388.669 180.074 385.554 183.294 382.673 186.695C377.67 192.601 372.365 198.885 366.78 204.35C360.633 210.365 355.326 217.619 351.353 225.318C350.619 226.74 346.156 235.115 348.06 236.757C349.808 238.266 359.532 234.748 361.305 234.337C368.958 232.56 377.645 231.926 384.876 228.7C388.559 227.055 396.689 225.093 399.599 222.549C402.304 220.185 402.182 214.457 400.612 211.123C396.219 213.857 364.458 224.168 367.29 214.413ZM462.91 167.411C468.039 162.779 474.101 159.063 480.434 156.309C486.098 153.846 493.135 151.1 499.436 151.528C507.288 152.06 504.007 158.384 503.979 163.77C503.942 170.916 500.81 181.211 509.343 184.919C512.129 175.024 518 151.625 532.065 164.591C535.66 155.076 548.48 151.856 557.507 150.109C555.871 145.302 550.901 140.951 547.456 137.343C543.147 132.829 539.744 127.539 535.427 123.111C526.898 114.367 511.447 117.175 500.649 119.355C497.045 120.082 486.596 120.995 484.849 123.642C483.754 125.302 484.366 129.358 483.555 131.388C482.436 134.185 480.526 136.777 478.993 139.36C473.399 148.786 467.709 158.272 458.138 163.669L462.91 167.411ZM494.21 218.189C489.146 220.132 485.421 223.381 480.929 226.117C475.483 229.435 469.097 232.542 464.21 236.64C462.421 238.139 461.416 240.728 458.948 240.896C456.801 241.042 453.529 238.548 451.625 237.676C448.432 236.21 445.381 233.989 442.172 232.682C439.535 231.608 438.368 231.828 436.086 229.74C434.806 237.358 411.521 230.237 406.636 230.121C402.117 230.014 395.917 230.549 391.711 232.365C387.704 234.096 384.571 237.905 381.14 240.5C376.438 244.058 371.951 247.657 368.489 252.583C363.739 259.338 370.905 257.426 375.684 257.018C386.592 256.086 397.202 258.684 407.718 261.191C417.117 263.432 426.399 266.12 435.397 269.753C440.457 271.797 445.783 273.676 450.542 276.332C453.051 277.733 457.121 281.163 459.999 280.174C462.64 279.268 465.271 271.7 466.872 268.677C469.98 262.809 473.25 257.04 476.46 251.229C482.522 240.253 488.528 229.369 494.21 218.189ZM431.894 363.455C435.015 361.663 440.103 362.146 443.554 361.395C447.453 360.546 451.374 359.163 455.093 357.722C458.858 356.262 462.416 354.769 465.857 352.943C467.431 352.108 469.528 351.285 470.982 350.127C472.154 349.193 472.581 347.458 473.662 346.611C476.481 344.4 477.309 345.787 477.687 341.522C478.097 336.89 475.498 334.266 472.263 330.8C469.366 327.697 465.604 325.015 461.964 322.833C460.354 321.868 458.634 320.781 456.991 319.86C454.506 318.465 451.175 316.145 449.87 319.14C452.587 319.833 453.185 323.303 450.734 324.549C449.387 325.234 447.349 324.228 445.831 324.956C443.487 326.08 441.232 329.215 439.226 330.904C432.641 336.448 426.343 338.526 417.724 338.972C399.714 339.901 380.854 337.846 363.19 335.177C358.644 334.49 354.106 335.234 349.517 335.07C345.053 334.911 340.398 333.934 336.009 333.18C327.556 331.728 318.646 330.533 310.324 328.397C300.26 325.813 290.161 322.47 280.712 318.141C271.648 313.988 261.404 307.126 251.223 306.597C255.567 310.85 262.077 312.489 267.303 315.291C271.574 317.579 278.253 319.049 280.951 322.821C282.708 325.275 283.589 329.784 284.916 332.662C286.383 335.848 287.737 339.084 289.096 342.317C290.46 345.57 291.882 348.824 292.99 352.175C293.676 354.253 293.971 358.562 295.592 359.984C298.177 362.252 306.829 363.258 310.313 364.012C316.817 365.422 324.237 365.234 330.871 365.332C333.613 365.372 336.376 365.747 338.996 365.797C342.675 365.868 342.324 365.231 342.272 362.037C342.242 360.119 342.28 356.631 344.846 358.21C346.594 359.287 345.391 364.055 345.067 365.749C359.711 367.207 374.991 367.94 389.565 367.453C403.899 366.973 417.736 365.124 431.894 363.455ZM498.029 329.839C500.613 311.284 503.762 292.419 507.286 274.104C510.848 255.596 515.131 237.256 519.948 218.818C516.766 218.057 513.584 217.297 510.402 216.536C510.284 220.421 508.971 223.796 508.41 227.663C507.637 233.001 506.159 238.184 505.275 243.504C503.594 253.617 500.48 263.512 497.736 273.374C494.94 283.428 494.006 293.785 491.436 303.89C489.319 312.214 488.237 321.384 487.054 329.941C484.186 350.703 480.099 371.505 476.988 392.276C474.071 411.751 473.778 431.621 473.946 451.278C474.05 463.279 475.88 475.245 475.784 487.262C475.761 490.233 476.011 493.194 476.165 496.16C476.274 498.252 475.15 504.052 476.104 505.805C476.707 506.915 479.299 507.938 480.217 509.479C481.669 511.917 481.974 514.831 484.306 516.676C486.196 509.054 485.303 498.993 484.89 491.214C484.49 483.719 485.266 475.972 485.419 468.362C485.717 453.432 486.508 438.722 487.274 423.785C488.113 407.405 490.499 390.626 492.83 374.368C494.949 359.586 496.363 344.542 498.029 329.839ZM428.866 97.1403C427.842 97.0447 426.817 96.9499 425.792 96.8543C425.945 99.0134 425.489 102.51 427.011 103.637C428.164 104.49 430.5 104.21 431.898 104.483C436.481 105.378 441.791 106.128 446.34 104.496C448.108 103.862 446.973 102.868 449.407 103.281C452.339 103.779 451.268 104.243 452.115 106.072C452.767 107.484 453.103 109.886 453.843 111.581C454.834 113.849 456.842 117.907 455.983 120.526C455.149 123.072 452.036 123.841 450.713 126.724C449.729 128.867 449.961 131.983 449.45 134.344C448.768 137.493 447.905 140.629 447.525 143.836C447.045 147.876 447.209 152.616 452.215 153.243C456.861 153.825 460.182 152.332 463.297 148.949C469.247 142.49 476.041 133.372 479.536 125.248C479.944 124.299 480.949 122.714 480.809 121.699C480.532 119.689 480.411 121.723 479.774 120.327C479.166 118.993 478.212 117.782 477.651 116.301C475.632 110.98 474.202 105.403 473.393 99.7703C473.026 97.2191 472.903 94.6989 472.966 92.1223C472.986 91.2425 473.515 88.6013 473.199 87.9991C472.879 87.3885 471.205 87.1071 470.683 86.5012C469.716 85.3785 468.054 82.2082 466.982 81.3678C465.664 80.3352 462.715 81.153 462.179 79.0989C461.322 75.8114 481.595 70.4567 472.124 66.0699C465.053 62.7946 454.207 79.3512 451.735 66.3232C451.306 64.0665 452.122 61.0031 451.132 58.935C450.038 56.6492 447.06 55.7947 444.98 54.6823C442.325 53.2641 439.644 51.8066 437.064 50.2533C435.295 49.1888 432.745 46.3618 430.862 46.1029C431.603 49.9401 430.182 53.7434 430.158 57.5731C434.238 56.4691 437.046 56.4457 441.072 58.4088C442.99 59.343 450.215 64.6452 446.554 67.1955C443.588 65.4424 440.416 63.922 437.11 62.8912C435.806 62.4841 434.178 61.9308 432.791 61.9026C429.572 61.8379 430.025 62.1746 428.817 64.602C427.651 66.9403 427.902 73.0389 425.344 74.5321C422.699 76.0759 424.739 73.9149 422.48 74.4139C421.192 74.699 419.788 75.6567 418.609 76.1979C420.224 77.9518 423.486 79.5529 424.558 81.501C426.121 84.3411 425.578 90.2155 425.823 93.3229C427.87 92.5904 430.024 92.5603 432.099 92.0163C434.049 91.5042 436.753 89.2878 436.956 92.5463C437.183 96.1771 431.444 97.1403 428.866 97.1403ZM455.502 192.734C455.662 189.597 455.836 186.46 456.185 183.336C456.421 181.238 458.413 175.152 457.287 173.309C456.062 171.305 451.958 171.177 449.983 170.696C446.197 169.773 442.566 169.017 438.718 168.407C435.178 167.847 431.844 167.729 428.277 167.567C424.393 167.392 423.431 166.361 422.572 170.641C421.897 174.006 420.992 177.511 420.866 180.957C420.748 184.191 421.725 186.998 418.52 189.178C425.558 189.178 434.724 182.912 441.147 188.515C450.334 196.528 434.346 198.836 430.13 200.605C433.635 202.309 438.838 203.646 440.487 207.537C442.339 211.897 439.652 213.751 435.541 214.1C435.928 215.781 437.408 216.873 437.849 218.894C438.494 221.857 436.4 220.876 439.072 223.168C442.591 226.186 449.835 228.203 454.15 230.125C455.16 230.577 456.183 231.001 457.217 231.398C458.834 232.837 460.027 232.563 460.799 230.575C463.012 229.174 464.983 226.048 466.947 224.229C471.315 220.183 476.137 216.632 481.329 213.71C479.176 212.819 476.603 214.833 474.537 213.853C472.868 213.06 473.497 211.619 472.498 210.539C472.898 209.131 472.475 208.616 471.228 208.994C470.605 209.061 470.025 208.955 469.488 208.678C468.444 207.384 467.975 206.96 467.906 204.961C467.832 202.84 469.061 202.092 469.532 200.394C471.064 199.35 471.029 198.324 469.427 197.319C468.769 196.242 468.409 195.074 468.35 193.814C468.045 189.137 472.315 187.252 475.571 184.777C469.741 184.137 469.963 177.299 473.997 174.31C478.178 171.211 487.031 172.48 492.087 173.179C493.138 173.323 495.979 174.679 497.042 173.815C497.694 173.285 497.233 168.804 497.263 168.013C497.332 166.218 497.768 164.078 497.482 162.292C496.883 158.552 498.152 160.436 495.46 160.332C489.053 160.083 480.895 165.676 475.258 168.313C468.949 171.264 464.895 171.718 464.829 179.036C464.766 185.966 462.823 192.87 461.974 199.689C461.604 202.667 461.339 218.138 455.889 212.429C453.776 210.214 455.13 206.809 455.286 204.077C455.5 200.319 455.373 196.503 455.502 192.734ZM103.053 424.69C106.172 425.243 111.252 423.453 114.654 423.265C120.604 422.938 126.731 422.371 132.56 421.133C137.12 420.164 142.316 419.312 144.776 414.898C146.974 410.953 147.751 406.013 148.935 401.707C149.564 399.422 151.186 396.107 151.186 393.742C151.186 390.668 150.772 391.274 147.565 389.591C143.507 387.462 139.559 384.495 135.182 383.287C133.858 383.028 132.533 382.775 131.207 382.526C129.492 381.531 128.523 382.021 128.299 383.992C126.625 385.758 125.644 389.011 124.239 391.076C121.037 395.783 117.234 398.99 112.265 401.705C103.325 406.588 94.9948 410.356 85.4193 413.549C80.1423 415.309 75.2762 417.777 70.1184 419.717C65.9861 421.271 60.283 421.744 57.1087 425.203C53.5272 429.106 59.0323 430.525 62.0921 433.163C64.5992 435.325 64.648 435.822 68.0775 434.772C70.6326 433.99 72.8976 432.495 75.3513 431.481C83.7557 428.009 93.9279 425.699 103.053 424.69ZM295.129 486.594C291.997 485.916 288.864 485.239 285.732 484.563C288.813 490.313 295.292 498.728 290.641 505.383C288.904 507.87 286.013 508.579 283.43 509.841C280.305 511.368 277.42 513.323 274.465 515.143C262.281 522.644 249.899 530.252 237.061 536.689C241.08 537.986 247.26 538.884 251.398 537.754C256.219 536.437 260.681 533.415 265.63 532.093C274.507 529.724 283.852 527.707 292.871 526.491C300.243 525.498 318.697 527.742 317.801 516.655C316.95 506.128 310.662 496.086 308.791 485.679C304.2 486.699 299.82 486.52 295.129 486.594ZM481.831 318.111C485.401 300.588 487.534 282.768 491.745 265.371C493.846 256.693 495.327 247.895 497.379 239.214C498.334 235.175 499.055 231.097 499.985 227.066C500.927 222.985 502.954 219.218 503.418 214.999C500.006 215.843 499.217 223.657 498.183 226.597C496.286 231.99 494.217 237.172 491.779 242.335C487.904 250.542 483.792 258.461 479.42 266.417C474.811 274.81 469.943 282.881 464.184 290.545C462.293 293.063 459.725 295.037 458.506 297.799C456.588 302.144 455.782 307.324 453.95 311.846C455.24 312.5 458.572 312.664 460.154 312.976C463.097 313.556 465.158 314.072 467.984 315.472C472.963 317.937 477.146 320.858 480.472 325.293C481.308 323.017 481.526 320.521 481.831 318.111ZM343.06 451.805C343.001 434.93 342.762 417.91 343.038 401.159C343.114 396.508 343.493 391.49 344.168 386.874C344.591 383.973 347.083 377.806 345.445 376.415C344.045 375.226 336.655 376.009 334.841 375.966C331.324 375.885 327.817 375.728 324.293 375.464C324.293 381.718 326.736 388.82 327.872 395.007C328.93 400.778 329.8 406.581 330.673 412.379C332.564 424.933 333.102 437.661 335.155 450.249C337.014 461.663 339.468 473.029 340.821 484.441C341.563 490.705 343.066 496.616 344.233 502.876C344.843 506.141 347.066 519.588 349.865 520.91C350.458 516.086 348.039 510.262 347.606 505.384C347.159 500.349 346.813 495.279 345.997 490.217C345.038 484.274 344.554 478.184 344.186 472.168C343.962 468.486 343.893 464.816 343.575 461.138C343.345 458.468 342.335 454.423 343.06 451.805ZM431.006 226.141C431.122 224.303 426.366 224.377 425.48 222.265C423.683 217.976 427.779 218.748 430.297 218.304C429.399 215.919 412.586 216.788 416.503 210.349C419.22 205.881 429.525 212.719 432.279 208.474C434.089 205.685 429.163 205.302 427.209 205.022C424.27 204.601 417.344 205.962 417.572 202.147C417.859 197.354 431.323 194.046 435.099 192.638C434.681 189.356 418.476 194.022 416.132 195.352C410.824 198.364 406.757 203.766 405.978 209.771C405.071 216.758 408.614 222.26 415.592 223.974C418.502 224.689 420.652 224.769 423.344 225.843C425.116 226.55 430.849 228.312 432.063 226.529C431.71 226.4 431.358 226.27 431.006 226.141ZM526.133 182.685C526.402 179.701 528.913 174.085 526.02 172.124C521.97 169.381 520.292 173.902 519.375 176.617C518.252 179.933 513.535 188.049 517.66 190.115C518.619 190.595 523.166 190.036 523.968 189.719C526.203 190.302 526.923 189.465 526.133 187.208V182.685ZM427.307 423.625C427.053 415.471 430.703 405.668 432.772 397.681C435.118 388.632 436.354 379.402 438.839 370.452C436.074 370.785 433.285 371.057 430.553 371.612C426.827 372.369 426.761 372.249 427.028 375.905C427.428 381.393 426.904 386.775 426.621 392.262C426.053 403.249 427.436 414.416 426.517 425.332C427.337 425.541 427.6 424.971 427.307 423.625ZM530.474 209.913C539.426 211.284 548.006 214.122 556.152 217.936C560.643 220.038 565.589 222.296 570.607 223.136C576.182 224.069 582.095 223.631 587.788 223.991C589.795 224.118 595.072 225.093 597.029 223.912C598.967 222.743 598.815 220.761 598.906 218.398C599.142 212.321 596.391 206.371 593.917 200.918C591.796 196.241 590.191 192.669 586.899 188.645C582.671 183.477 578.989 177.9 575.029 172.506C572.044 168.44 569.027 164.432 565.984 160.371C563.807 157.463 563.91 156.463 560.629 156.788C557.399 157.109 554.145 159.019 551.102 160.031C546.585 161.533 541.116 162.358 536.997 164.76C534.334 166.313 534.215 166.599 534.246 169.31C534.275 171.835 535.089 174.914 536.599 176.889C539.737 180.99 544.938 183.16 549.401 185.206C551.984 186.389 554.215 188.067 556.514 189.699C558.99 191.458 563.986 192.495 565.882 194.5C571.399 200.341 561.355 199.186 558.549 199.01C552.493 198.629 546.47 198.687 540.369 198.682C533.71 198.678 527.104 198.368 520.539 198.585C516.694 198.712 512.282 196.762 509.791 193.511C508.585 191.936 508.115 190.447 506.538 188.813C504.47 186.674 502.673 184.42 500.158 182.765C496.044 180.056 488.567 178.523 483.669 179.534C485.423 179.779 493.671 182.587 490.04 186.117C489.598 186.546 484.292 186.828 483.139 187.358C481.058 188.313 478.434 189.703 477.214 191.721C480.768 191.125 493.95 190.436 487.225 197.256C485.575 198.93 480.835 200.601 484.868 202.381C485.794 202.79 487.648 202.211 488.841 202.58C490.613 203.128 492.062 204.596 493.723 205.378C498.433 207.6 504.926 208.971 509.841 208.484C516.638 207.81 523.722 209.023 530.474 209.913ZM350.217 415.406C350.449 425.203 350.095 435.058 350.305 444.9C350.528 455.411 351.876 465.711 352.519 476.116C353.096 485.441 354.355 494.589 355.378 503.87C355.966 509.215 356.645 514.327 357.549 519.632C358.397 524.596 358.541 528.971 352.606 530.306C341.259 532.859 339.496 516.535 337.303 509.657C334.03 499.392 331.931 488.616 330.308 477.975C327.289 458.157 323.274 438.615 321.707 418.629C320.742 406.322 319.343 394.141 318.549 381.846C318.394 379.436 319.008 375.724 316.892 374.651C315.619 374.006 312.115 374.001 310.508 373.533C306.032 372.232 301.904 370.314 297.537 368.325C300.636 384.531 301.66 400.656 303.985 417.004C305.218 425.678 307.579 434.666 309.624 443.204C311.744 452.051 312.215 461.577 314.66 470.231C315.737 474.046 316.649 475.6 315.086 479.515C313.168 484.321 314.441 485.471 316.845 490.191C321.269 498.874 324.646 509.122 323.896 518.911C323.284 526.906 317.243 531.092 309.76 533.249C300.4 535.946 290.598 535.628 281.181 538.691C272.977 541.359 264.641 543.331 256.674 546.854C253.461 548.274 250.409 549.959 246.841 550.22C241.949 550.576 238.65 547.736 234.029 547.145C231.14 546.776 226.911 548.154 225.248 545.126C223.929 542.726 225.421 537.488 227.078 535.556C231.729 530.126 241.043 525.395 247.316 522.191C254.546 518.499 261.541 513.876 268.239 509.111C272.299 506.221 276.44 503.448 280.497 500.554C283.181 498.638 284.201 498.626 283.927 495.582C283.708 493.154 282.614 490.8 282.423 488.315C282.276 486.411 282.943 483.815 282.044 482.573C281.382 481.656 278.897 481.01 277.921 480.316C274.349 477.783 273.537 474.651 271.915 470.798C268.23 462.049 263.996 453.546 260.438 444.726C252.798 425.79 248.137 405.879 241.803 386.556C235.333 366.815 229.547 346.091 225.983 325.61C221.215 327.061 216.715 333.482 212.918 336.659C207.787 340.953 202.53 345.105 197.499 349.516C189.252 356.748 180.902 363.781 174.088 372.441C170.804 376.612 168.116 381.101 165.144 385.483C163.427 388.014 161.826 390.88 159.966 393.288C159.668 393.675 159.659 394.468 159.337 394.798C158.629 395.521 157.277 394.558 156.823 395.034C154.021 397.964 154.058 406.284 153.184 410.15C151.981 415.478 150.63 421.605 146.469 425.277C140.043 430.949 128.191 431.828 120.058 432.122C109.62 432.5 99.4949 435.409 89.592 438.533C84.9727 439.99 80.4745 441.694 75.8383 443.108C73.1716 443.924 70.1296 445.547 67.2819 445.235C63.8477 444.859 61.1359 441.969 58.6203 439.821C54.5959 436.385 50.8699 432.998 50.9997 427.361C51.1448 421.394 54.3773 416.89 59.4695 413.926C69.3142 408.195 80.3253 404.522 90.9366 400.562C95.0032 399.044 98.4844 397.364 102.373 395.32C107.866 392.431 114.191 390.073 119.065 386.26C120.503 385.134 125.784 381.686 126.235 379.908C126.294 379.676 124.974 376.961 124.968 376.53C124.955 375.422 125.611 374.223 126.014 373.275C128.553 367.306 132.812 361.558 136.068 355.929C142.031 345.619 148.017 335.255 154.93 325.558C168.716 306.226 184.202 287.298 200.916 270.422C209.064 262.195 216.105 252.864 224.368 244.751C227.641 241.537 231.097 238.92 235.131 236.834C239.627 234.509 244.675 234.053 249.829 233.343C262.319 231.624 272.749 235.319 284.475 238.534C295.56 241.573 306.657 244.136 317.804 247.302C330.047 250.778 342.163 254.112 354.367 257.901C360.887 259.925 367.595 261.167 374.146 263.11C377.301 264.044 389.227 269.901 391.857 267.977C383.571 264.089 375.083 260.546 366.219 258.199C363.609 257.509 361.941 258.273 362.038 255.275C362.092 253.64 363.929 251.433 364.59 250.088C366.174 246.866 367.967 243.717 369.517 240.486C363.898 242.081 348.793 247.604 344.558 241.895C340.127 235.919 343.827 224.203 346.604 218.352C353.854 203.079 366.185 190.333 378.2 178.82C380.8 176.33 386.402 173.079 387.787 169.909C388.208 168.945 387.292 167.529 388.242 166.276C388.807 165.532 391.077 165.022 391.984 164.219C395.288 161.295 397.924 155.141 400.207 151.307C402.597 147.291 404.752 142.943 407.756 139.34C412.67 133.449 417.744 127.204 425.701 125.826C429.604 125.151 433.749 125.511 437.489 124.164C442.013 122.533 446.311 119.965 450.879 118.277C449.746 115.947 448.827 112.242 446.628 111.988C444.512 111.742 441.407 113.562 438.984 113.549C435.446 113.529 432.425 112.964 429.011 112.289C425.231 111.542 423.986 111.678 422.609 107.578C421.164 103.283 421.528 98.2949 421.54 93.8341C421.546 91.6543 421.978 88.9483 421.792 86.8089C421.514 83.5851 420.887 83.4613 418.36 81.411C415.203 78.8494 411.311 75.4597 415.178 71.0091C417.268 68.6043 421.562 70.4745 423.414 67.8905C425.299 65.2586 425.208 58.647 425.782 55.5555C419.97 58.4125 422.101 47.7321 422.1 45.1622C422.099 41.4226 419.593 34.6975 423.201 31.5863C424.878 30.1419 426.123 31.3368 428.04 30.5067C430.227 29.5594 431.604 27.0748 433.931 26.1115C438.556 24.1962 443.279 26.5026 448.027 26.1218C453.474 25.6857 458.825 24.8434 464.301 25.7176C466.897 26.1303 467.989 27.1161 470.185 28.221C472.296 29.2837 474.438 29.5744 476.731 30.2582C478.772 30.8669 480.561 31.1746 481.94 32.9529C483.03 34.3598 482.586 36.7263 483.687 37.939C484.773 39.134 486.92 38.9605 488.214 40.3796C489.457 41.7415 490.2 43.9925 490.845 45.6874C491.718 47.9704 491.82 48.8277 493.356 50.6548C494.695 52.2493 496.623 53.5315 497.741 55.3501C500.374 59.6375 500.441 65.8373 499.601 70.6602C499.315 72.3026 496.935 76.5477 497.307 77.9453C497.662 79.2753 499.894 78.9254 500.905 79.7668C501.778 80.4937 502.547 83.7324 503.236 83.9303C504.724 84.3571 506.559 81.4185 507.687 80.9776C509.646 80.2113 510.466 79.4253 511.552 82.3133C512.356 84.4565 511.236 87.3651 510.645 89.4107C509.895 92.0145 509.065 95.15 507.076 97.1188C504.738 99.4336 502.866 98.1683 500.286 99.4149C496.419 101.283 497.56 107.125 492.802 108.794C488.268 110.385 483.272 105.38 479.843 103.079C480.553 108.665 483.227 114.047 481.944 119.771C492.372 115.685 502.686 109.887 514.051 108.61C519.846 107.958 525.7 107.186 531.17 109.592C537.573 112.407 541.496 118.618 545.83 123.779C553.976 133.478 562.333 142.906 570.151 152.917C577.322 162.101 583.367 172.742 591.26 181.341C599.263 190.061 605.303 204.209 604.427 216.284C604.348 217.374 603.503 219.85 603.635 221.025C603.739 221.926 604.557 223.067 604.544 223.793C604.5 226.236 603.692 227.643 601.363 228.999C597.325 231.35 591.309 232.54 586.746 233.124C580.684 233.899 573.259 233.983 567.193 233.155C560.938 232.299 555.439 228.798 549.687 226.682C544.64 224.825 539.573 223.666 534.27 222.481C531.345 221.827 528.107 220.018 526.3 221.769C524.64 223.379 524.296 231.636 523.909 233.832C519.714 257.631 514.729 280.624 510.313 304.303C505.309 331.141 501.887 357.969 498.407 385.035C495.244 409.639 494.21 434.521 493.503 459.101C493.165 470.827 493.116 482.426 493.187 494.162C493.228 500.733 496.513 522.669 486.771 523.508C481.047 524.004 476.467 515.796 474.933 511.32C472.628 504.595 471.428 497.353 471.06 490.288C470.317 475.986 469.342 461.674 468.765 447.367C468.14 431.866 468.935 416.08 470.209 400.63C471.492 385.077 474.723 369.751 475.714 354.174C472.741 358.418 471.789 359.215 466.837 361.063C461.655 362.997 456.669 365.286 451.44 367.09C449.661 367.703 446.885 368.088 445.426 369.092C442.735 370.946 444.503 368.843 443.644 372.45C442.726 376.304 442.553 380.931 442.309 384.891C441.164 403.476 436.015 421.93 433.64 440.417C433.067 444.88 433.885 463.829 426.203 457.857C420.287 453.258 420.405 438.813 419.563 432.046C418.443 423.027 419.067 413.754 419.244 404.68C419.446 394.346 419.619 383.507 422.085 373.416C417.673 372.661 411.537 374.718 407.096 375.064C403.25 375.363 399.418 375.554 395.595 375.764C386.476 376.265 377.084 376.664 367.812 376.485C366.124 376.452 355.096 374.908 353.686 376.153C353.228 376.557 353.089 382.118 353.003 382.797C352.678 385.352 352.238 387.904 351.91 390.445C350.863 398.566 349.917 407.287 350.217 415.406Z" fill="black"/>
<path fill-rule="evenodd" clip-rule="evenodd" d="M513.986 492.591C520.945 495.31 528.331 496.297 535.349 498.775C541.623 500.99 547.449 503.967 553.627 506.219C553.988 503.353 554.18 498.5 553.122 495.799C551.624 491.974 547.68 491.881 543.798 490.518C534.348 487.203 524.408 486.504 515.027 482.631C516.633 485.723 515.915 489.817 513.986 492.591ZM634.115 482.589C619.085 483.03 604.722 486.528 589.909 488.691C582.701 489.743 575.487 490.682 568.272 491.664C565.496 492.041 560.436 491.596 558.418 494C556.745 495.991 558.578 502.786 557.835 505.705C560.873 505.929 566.267 503.091 569.564 502.621C574.698 501.891 579.765 500.869 584.952 500.543C593.168 500.025 601.241 499.585 609.443 498.671C617.783 497.741 625.854 496.013 634.261 495.382C638.348 495.074 639.992 495.84 640.232 491.526C640.327 489.839 640.558 487.015 640.085 485.352C640.841 483.307 640.17 482.315 638.073 482.373C636.741 482.223 635.422 482.295 634.115 482.589ZM605.046 468.82C609.11 468.439 613.191 467.892 617.266 467.663C618.092 467.616 622.283 467.868 622.968 467.1C623.936 466.014 622.857 462.039 622.679 460.809C622.075 456.627 621.407 454.195 616.845 454.186C612.995 454.176 609.01 454.991 605.175 455.366C587.766 457.072 570.445 457.793 553.228 461.033C554.277 465.496 555.466 470.1 554.213 474.664C562.472 475.09 571.539 473.501 579.611 471.87C587.861 470.204 596.614 469.377 605.046 468.82ZM577.492 426.801C571.272 426.829 564.699 429.569 558.561 428.958C558.469 430.1 560.434 429.152 560.976 430.221C562.135 430.223 562.538 430.601 562.184 431.357C562.206 431.872 561.943 432.174 561.394 432.261C561.123 432.285 560.852 432.308 560.583 432.331C559.396 432.37 559.201 433.17 560 434.735C559.657 436.673 560.171 439.135 560.246 441.08C571.276 439.579 581.991 438.018 593.099 437.348C598.342 437.032 603.582 437.033 608.82 436.602C614.582 436.127 620.872 437.145 626.506 436.066C629.517 435.489 629.202 435.529 628.982 431.613C628.848 429.234 628.898 426.409 626.961 424.674C623.726 421.775 616.358 423.45 612.49 423.552C600.838 423.86 588.988 424.943 577.492 426.801ZM583.859 482.729C600.521 481.216 617.058 477.902 633.815 477.902C632.63 476.718 630.049 476.413 628.575 475.766C626.894 475.031 625.307 473.463 623.664 472.82C620.366 471.529 617.011 473.323 613.625 474.097C605.456 475.968 597.074 476.032 588.892 477.867C580.433 479.763 571.864 481.511 563.249 482.476C559.148 482.935 554.746 483.865 550.693 482.782C550.364 482.546 550.033 482.311 549.705 482.076C549.351 480.568 548.367 480.165 546.754 480.868C544.705 480.478 542.097 480.981 540.034 481.033C539.951 481.857 547.57 484.44 549.023 485.08C552.523 486.621 554.897 487.75 558.635 487.09C567.053 485.603 575.334 483.828 583.859 482.729ZM525.245 434.014C525.896 436.553 528.63 435.398 530.984 435.678C534.144 436.052 537.288 437.142 540.348 437.964C545.905 439.457 551.465 440.93 556.999 442.509C556.781 440.274 557.275 435.186 556.094 433.203C554.855 431.124 548.979 430.213 546.243 429.579C539.345 427.983 531.978 428.891 524.972 429.227C525.095 430.821 525.187 432.416 525.245 434.014ZM591.496 449.895C598.04 449.34 604.591 448.91 611.154 448.679C618.657 448.416 613.203 447.217 613.045 442.641C603.183 444.215 593.235 444.525 583.404 445.869C575.259 446.985 565.557 449.896 557.249 448.332C553.331 447.595 549.33 447.31 545.162 446.894C541.229 446.501 537.519 444.669 533.634 444.214C529.274 443.702 524.819 446.154 520.481 446.801C518.642 447.076 518.215 448.323 517.347 446.11C516.447 443.814 519.025 441.938 520.041 440.565C521.227 438.962 520.734 441.565 521.392 439.061C521.577 438.36 521.077 436.597 520.985 435.841C520.753 433.93 520.152 431.857 520.059 429.949C519.972 428.198 519.957 425.524 521.859 424.502C523.019 423.878 523.842 424.788 524.854 424.612C532.751 423.238 542.04 423.126 550.049 424.451C558.732 425.887 566.205 422.084 574.763 420.542C584.801 418.733 594.946 418.462 605.072 417.698C613.73 417.045 629.549 413.656 632.847 424.715C633.781 427.848 635.142 436.474 632.629 439.14C629.332 442.641 621.697 441.524 617.433 442.434C618.071 444.248 619.969 445.482 619.313 447.642C625.288 447.925 626.345 453.569 627.28 458.838C628.249 464.289 626.36 466.457 631.57 469.295C638.831 473.251 646.523 477.247 646.381 486.669C646.31 491.407 645.78 498.551 640.915 501.009C636.157 503.414 628.408 503.008 623.164 503.88C613.008 505.571 602.816 507.556 592.599 508.571C581.719 509.652 570.658 510.54 559.76 511.023C553.822 511.287 548.693 512.184 542.958 510.186C537.32 508.222 531.805 506.787 525.988 505.328C520.245 503.89 502.665 501.952 507.788 492.131C508.607 490.56 511.409 489.31 511.861 487.824C512.591 485.427 510.126 483.557 510.229 481.39C510.417 477.428 514.888 476.931 517.975 476.931C512.684 473.621 519.77 469.702 519.728 466.893C519.654 461.942 513.497 458.729 513.148 454.579C512.302 444.48 544.338 454.995 549.269 457.18C545.473 462.808 527.866 457.938 522.621 457.085C523.337 458.964 524.021 460.653 524.228 462.577C524.396 464.145 523.797 465.937 524.345 467.515C525.21 470.01 525.181 469.533 528.245 470.213C530.511 470.716 532.753 471.297 535.012 471.83C538.483 472.649 543.942 474.846 547.381 474.726C550.397 474.621 549.801 475.556 550.354 472.206C550.652 470.406 550.144 468.492 549.84 466.729C549.207 463.032 548.281 459.534 551.509 456.882C554.587 454.353 561.074 453.149 564.849 452.257C573.228 450.278 582.899 449.793 591.496 449.895Z" fill="black"/>
<path fill-rule="evenodd" clip-rule="evenodd" d="M631.367 386.808C622.268 385.283 613.022 384.907 603.815 385.37C604.314 387.648 604.813 389.926 605.313 392.203C613.938 389.981 622.688 388.68 631.367 386.808ZM557.373 404.481C553.723 404.214 556.262 405.846 557.163 408.235C558.271 411.169 558.033 414.88 558.288 417.969C568.965 413.897 581.389 411.514 592.741 410.144C598.125 409.494 603.587 409.308 609 409.03C610.601 408.948 616.38 409.618 617.551 408.542C618.42 407.741 617.81 403.324 616.975 402.349C612.431 397.053 594.866 401.626 588.512 402.1C578.093 402.879 567.864 404.74 557.373 404.481ZM572.538 390.287C581.992 391.196 591.121 391.109 600.576 392.525C599.859 386.516 600.716 384.982 593.898 384.663C587.823 384.379 581.766 384.15 575.719 384.153C562.12 384.16 548.554 383.9 534.94 383.9V390.008C547.53 388.718 559.922 391.047 572.538 390.287ZM527.075 412.747C533.041 412.722 538.68 414.973 544.648 415.556C548.219 415.906 547.097 416.349 549.575 418.142C553.434 420.935 554.545 419.447 554.062 415.651C552.422 402.812 536.165 405.691 526.797 404.977C527.413 408.039 525.998 410.636 523.913 412.747H527.075ZM591.568 396.262C582.986 396.401 574.393 396.889 565.871 396.711C562.057 396.631 557.114 395.875 553.376 396.525C550.637 397.002 548.346 398.397 545.342 398.915C549.754 401.292 551.992 399.686 556.63 399.145C561.265 398.606 565.969 398.616 570.623 398.334C578.265 397.871 586.412 396.041 593.942 396.539C594.079 395.478 593.289 395.386 591.568 396.262ZM523.498 424.07C519.56 424.062 524.977 419.584 525.689 419.139C521.329 419.139 520.274 416.525 521.537 412.324C522.727 408.368 523.607 409.579 520.613 406.284C518.359 403.803 518.018 401.975 520.675 399.201C523.379 396.38 528.855 397.178 531.251 394.848C535.33 390.884 530.066 382.987 535.718 379.95C539.538 377.898 545.696 378.152 549.914 377.719C553.991 377.3 558.211 377.219 562.315 377.163C571.261 377.041 580.553 378.541 589.46 379.367C592.707 379.667 596.357 380.979 599.557 380.982C602.819 380.985 606.236 380.258 609.605 380.342C613.521 380.441 617.293 380.152 621.332 380.794C624.426 381.288 631.65 381.546 634.015 383.847C641.896 391.512 623.208 395.032 619.993 395.893C623.265 399.478 623.129 404.217 622.636 408.73C624.194 408.73 626.879 408.052 627.685 409.799C628.687 411.969 624.98 412.532 624.104 412.785C619.062 414.242 613.161 413.842 607.965 414.371C597.577 415.428 587.315 416.038 577.035 418.006C572.025 418.965 567.045 420.152 562.039 421.086C561.174 421.248 560.305 421.377 559.432 421.475C558.092 421.36 557.659 422.2 558.132 424.001C556.742 424.679 551.561 422.988 549.959 422.729C540.788 421.241 532.583 421.86 523.498 424.07Z" fill="black"/>
<path fill-rule="evenodd" clip-rule="evenodd" d="M708.692 513.128C702.777 517.783 697.278 522.176 690.872 526.221C695.401 526.079 710.461 518.858 708.692 513.128ZM706.382 505.541C703.154 502.767 699.947 503.051 695.95 502.21C692.271 501.435 688.695 500.102 685.022 499.214C682.14 498.518 679.288 497.576 676.416 496.919C672.361 495.989 671.961 497.012 668.231 499.137C655.006 506.674 640.206 511.859 626.275 517.977C630.366 521.578 639.566 521.733 644.678 522.881C648.411 523.718 651.962 524.864 655.537 526.19C658.866 527.426 664.228 530.268 667.739 530.363C670.702 530.443 673.111 527.527 675.662 525.956C679.018 523.889 682.359 521.859 685.741 519.843C692.898 515.579 699.59 510.353 706.382 505.541ZM646.612 536.072C645.086 534.603 640.49 534.667 638.576 534.219C634.805 533.338 631.089 532.422 627.268 531.76C621.067 530.688 611.272 530.207 610.598 522.163C610.037 515.477 618.115 513.891 622.84 511.626C629.945 508.218 637.194 505.074 644.48 502.069C651.31 499.253 658.241 496.871 665.196 494.437C666.552 493.962 667.654 494.028 668.761 492.942C669.634 492.085 669.365 490.422 670.322 489.527C672.514 487.477 675.359 488.555 677.993 489.081C683.976 490.274 690.188 491.841 695.892 494.055C701.82 496.355 707.122 496.836 708.545 503.556C711.576 502.133 713.856 501.927 713.493 506.105C713.388 507.333 712.496 508.668 712.281 509.934C711.967 511.801 712.518 513.769 712.207 515.641C711.072 522.446 701.897 527.487 696.211 530.159C689.199 533.454 680.153 538.322 672.325 538.964C663.984 539.65 654.894 536.374 646.612 536.072Z" fill="black"/>
<path fill-rule="evenodd" clip-rule="evenodd" d="M540.437 423.173C537.951 423.189 535.462 423.204 532.977 423.22C535.458 422.754 537.946 422.749 540.437 423.173Z" fill="black"/>
<path fill-rule="evenodd" clip-rule="evenodd" d="M394.949 160.043C394.203 161.286 393.458 162.529 392.711 163.773C392.965 162.171 393.534 160.797 394.949 160.043Z" fill="black"/>
<path fill-rule="evenodd" clip-rule="evenodd" d="M540.437 458.834C541.933 458.847 543.427 458.859 544.914 458.873C543.416 458.861 541.927 458.848 540.437 458.834Z" fill="black"/>
<path fill-rule="evenodd" clip-rule="evenodd" d="M574.758 377.671C573.016 377.577 571.276 377.482 569.535 377.388C571.276 377.482 573.016 377.577 574.758 377.671Z" fill="black"/>
<path fill-rule="evenodd" clip-rule="evenodd" d="M544.914 423.21C543.421 423.196 541.928 423.182 540.437 423.168C541.935 422.76 543.428 422.774 544.914 423.21Z" fill="black"/>
<path fill-rule="evenodd" clip-rule="evenodd" d="M604.292 211.523C604.25 210.031 604.208 208.538 604.165 207.047C604.209 208.541 604.25 210.032 604.292 211.523Z" fill="black"/>
<path fill-rule="evenodd" clip-rule="evenodd" d="M350.603 436.844C350.572 435.6 350.541 434.356 350.511 433.113C350.542 434.358 350.572 435.601 350.603 436.844Z" fill="black"/>
<path fill-rule="evenodd" clip-rule="evenodd" d="M391.219 376.035C392.217 376.036 393.213 376.037 394.203 376.039C393.204 376.039 392.211 376.037 391.219 376.035Z" fill="black"/>
<path fill-rule="evenodd" clip-rule="evenodd" d="M524.769 108.054C523.525 108.145 522.282 108.234 521.039 108.325C522.283 108.234 523.526 108.145 524.769 108.054Z" fill="black"/>
<path fill-rule="evenodd" clip-rule="evenodd" d="M618.777 380.528C617.285 380.519 615.792 380.509 614.301 380.499C615.792 380.509 617.285 380.519 618.777 380.528Z" fill="black"/>
<path fill-rule="evenodd" clip-rule="evenodd" d="M493.116 472.656C493.079 471.66 493.041 470.663 493.005 469.672C493.042 470.669 493.079 471.664 493.116 472.656Z" fill="black"/>
<path fill-rule="evenodd" clip-rule="evenodd" d="M494.593 434.605C494.566 433.61 494.539 432.614 494.512 431.621C494.54 432.616 494.567 433.611 494.593 434.605Z" fill="black"/>
<path fill-rule="evenodd" clip-rule="evenodd" d="M469.132 451.766C469.168 452.762 469.204 453.758 469.239 454.75C469.203 453.753 469.168 452.76 469.132 451.766Z" fill="black"/>
<path fill-rule="evenodd" clip-rule="evenodd" d="M397.188 375.306C397.936 375.296 398.685 375.286 399.426 375.276C398.675 375.286 397.931 375.296 397.188 375.306Z" fill="black"/>
<path fill-rule="evenodd" clip-rule="evenodd" d="M613.555 414.136C614.303 414.104 615.051 414.072 615.793 414.039C615.042 414.072 614.298 414.104 613.555 414.136Z" fill="black"/>
<path fill-rule="evenodd" clip-rule="evenodd" d="M470.614 475.641C470.656 476.636 470.699 477.633 470.741 478.625C470.699 477.626 470.656 476.633 470.614 475.641Z" fill="black"/>
<path fill-rule="evenodd" clip-rule="evenodd" d="M550.585 470.418C550.535 471.415 550.484 472.411 550.434 473.402C550.484 472.406 550.535 471.412 550.585 470.418Z" fill="black"/>
<path fill-rule="evenodd" clip-rule="evenodd" d="M464.593 25.8556C463.539 25.7213 462.484 25.5881 461.43 25.4538C462.475 25.6956 463.62 24.7991 464.593 25.8556Z" fill="black"/>
<path fill-rule="evenodd" clip-rule="evenodd" d="M419.24 408.492C419.212 409.488 419.183 410.484 419.154 411.477C419.182 410.478 419.211 409.485 419.24 408.492Z" fill="black"/>
<path fill-rule="evenodd" clip-rule="evenodd" d="M355.11 499.516C355.059 498.52 355.007 497.525 354.956 496.531C355.008 497.527 355.059 498.521 355.11 499.516Z" fill="black"/>
<path fill-rule="evenodd" clip-rule="evenodd" d="M596.394 415.603C597.144 415.588 597.892 415.571 598.633 415.557C597.882 415.573 597.138 415.588 596.394 415.603Z" fill="black"/>
<path fill-rule="evenodd" clip-rule="evenodd" d="M343.088 234.652C343.094 235.649 343.099 236.645 343.103 237.637C343.098 236.639 343.093 235.646 343.088 234.652Z" fill="black"/>
<path fill-rule="evenodd" clip-rule="evenodd" d="M327.434 458.48C327.431 459.477 327.427 460.474 327.422 461.465C327.425 460.468 327.429 459.474 327.434 458.48Z" fill="black"/>
<path fill-rule="evenodd" clip-rule="evenodd" d="M513.386 452.512C513.359 453.508 513.333 454.504 513.305 455.496C512.896 454.473 512.942 453.481 513.386 452.512Z" fill="black"/>
<path fill-rule="evenodd" clip-rule="evenodd" d="M493.819 448.035C493.81 447.039 493.803 446.043 493.795 445.051C493.803 446.049 493.81 447.041 493.819 448.035Z" fill="black"/>
<path fill-rule="evenodd" clip-rule="evenodd" d="M646.383 536.416C647.132 536.437 647.881 536.457 648.621 536.478C647.869 536.458 647.126 536.437 646.383 536.416Z" fill="black"/>
<path fill-rule="evenodd" clip-rule="evenodd" d="M619.523 441.706C620.022 441.697 620.523 441.689 621.016 441.68C620.513 441.689 620.019 441.697 619.523 441.706Z" fill="black"/>
<path fill-rule="evenodd" clip-rule="evenodd" d="M600.871 443.933C601.372 443.932 601.87 443.931 602.363 443.93C601.863 443.932 601.366 443.932 600.871 443.933Z" fill="black"/>
<path fill-rule="evenodd" clip-rule="evenodd" d="M310.312 448.781C310.282 448.035 310.252 447.288 310.223 446.543C310.253 447.29 310.283 448.037 310.312 448.781Z" fill="black"/>
<path fill-rule="evenodd" clip-rule="evenodd" d="M615.793 448.215C615.145 448.871 614.311 448.484 613.555 448.525C614.301 448.422 615.047 448.319 615.793 448.215Z" fill="black"/>
<path fill-rule="evenodd" clip-rule="evenodd" d="M527.008 424.344C526.023 424.81 525.027 424.874 524.023 424.376C525.019 424.366 526.013 424.355 527.008 424.344Z" fill="black"/>
<path fill-rule="evenodd" clip-rule="evenodd" d="M591.918 449.913C590.923 449.905 589.928 449.897 588.934 449.888C589.929 449.897 590.924 449.905 591.918 449.913Z" fill="black"/>
<path fill-rule="evenodd" clip-rule="evenodd" d="M550.137 423.923C549.142 423.832 548.146 423.742 547.152 423.652C548.146 423.742 549.142 423.832 550.137 423.923Z" fill="black"/>
<path fill-rule="evenodd" clip-rule="evenodd" d="M322.235 420.43C322.216 421.178 322.196 421.925 322.176 422.668C322.194 421.919 322.214 421.174 322.235 420.43Z" fill="black"/>
<path fill-rule="evenodd" clip-rule="evenodd" d="M493.749 460.719C493.788 459.971 493.826 459.223 493.864 458.48C493.826 459.229 493.788 459.974 493.749 460.719Z" fill="black"/>
<path fill-rule="evenodd" clip-rule="evenodd" d="M596.394 417.693C595.4 417.777 594.405 417.86 593.41 417.944C594.406 417.86 595.4 417.777 596.394 417.693Z" fill="black"/>
<path fill-rule="evenodd" clip-rule="evenodd" d="M350.588 415.207C350.567 414.46 350.547 413.712 350.526 412.969C350.546 413.718 350.567 414.463 350.588 415.207Z" fill="black"/>
<path fill-rule="evenodd" clip-rule="evenodd" d="M475.242 357.758C475.183 358.505 475.124 359.252 475.066 359.996C475.125 359.248 475.184 358.504 475.242 357.758Z" fill="black"/>
<path fill-rule="evenodd" clip-rule="evenodd" d="M611.316 380.335C610.32 380.851 609.325 380.786 608.332 380.33C609.326 380.331 610.322 380.333 611.316 380.335Z" fill="black"/>
<path fill-rule="evenodd" clip-rule="evenodd" d="M493.127 483.848C493.082 483.1 493.039 482.354 492.995 481.609C493.039 482.358 493.082 483.102 493.127 483.848Z" fill="black"/>
<path fill-rule="evenodd" clip-rule="evenodd" d="M493.108 489.816C493.076 489.07 493.044 488.323 493.013 487.578C493.046 488.326 493.077 489.071 493.108 489.816Z" fill="black"/>
<path fill-rule="evenodd" clip-rule="evenodd" d="M352.033 391.332C352.044 390.585 352.054 389.837 352.064 389.094C352.053 389.843 352.044 390.587 352.033 391.332Z" fill="black"/>
<path fill-rule="evenodd" clip-rule="evenodd" d="M564.312 510.355C564.812 510.34 565.311 510.326 565.805 510.313C565.303 510.328 564.808 510.341 564.312 510.355Z" fill="black"/>
<path fill-rule="evenodd" clip-rule="evenodd" d="M323.758 516.676C323.717 515.929 323.677 515.182 323.637 514.438C323.678 515.185 323.717 515.931 323.758 516.676Z" fill="black"/>
<path fill-rule="evenodd" clip-rule="evenodd" d="M485.227 523.002C485.726 523.013 486.226 523.022 486.719 523.033C486.217 523.023 485.722 523.013 485.227 523.002Z" fill="black"/>
<path fill-rule="evenodd" clip-rule="evenodd" d="M593.41 379.881C592.416 379.805 591.42 379.73 590.426 379.655C591.42 379.73 592.416 379.805 593.41 379.881Z" fill="black"/>
<path fill-rule="evenodd" clip-rule="evenodd" d="M598.633 380.669L596.394 380.359L598.633 380.669Z" fill="black"/>
<path fill-rule="evenodd" clip-rule="evenodd" d="M485.537 459.227C485.579 456.987 485.62 454.749 485.662 452.512C485.62 454.751 485.579 456.988 485.537 459.227Z" fill="black"/>
<path fill-rule="evenodd" clip-rule="evenodd" d="M427.366 377.156C427.391 378.898 427.416 380.64 427.443 382.379C427.418 380.635 427.392 378.896 427.366 377.156Z" fill="black"/>
<path fill-rule="evenodd" clip-rule="evenodd" d="M298.703 486.436C297.458 486.451 296.211 486.466 294.973 486.482C296.222 486.467 297.462 486.451 298.703 486.436Z" fill="black"/>
<path fill-rule="evenodd" clip-rule="evenodd" d="M400.918 338.015C399.671 337.996 398.425 337.976 397.188 337.958C398.437 337.978 399.678 337.996 400.918 338.015Z" fill="black"/>
<path fill-rule="evenodd" clip-rule="evenodd" d="M368.836 367.086C370.08 367.085 371.324 367.084 372.566 367.082C371.323 367.083 370.079 367.084 368.836 367.086Z" fill="black"/>
<path fill-rule="evenodd" clip-rule="evenodd" d="M385.25 337.216C384.252 337.232 383.254 337.249 382.266 337.265C383.267 337.248 384.258 337.232 385.25 337.216Z" fill="black"/>
<path fill-rule="evenodd" clip-rule="evenodd" d="M304.672 486.467C303.675 486.462 302.677 486.456 301.688 486.451C302.689 486.457 303.68 486.462 304.672 486.467Z" fill="black"/>
<path fill-rule="evenodd" clip-rule="evenodd" d="M438.969 105.335C440.212 105.248 441.456 105.162 442.699 105.076C441.455 105.162 440.212 105.248 438.969 105.335Z" fill="black"/>
<path fill-rule="evenodd" clip-rule="evenodd" d="M455.686 192.871C455.733 191.627 455.779 190.383 455.825 189.141C455.778 190.386 455.733 191.628 455.686 192.871Z" fill="black"/>
<path fill-rule="evenodd" clip-rule="evenodd" d="M425.539 204.435C424.79 204.435 424.042 204.436 423.301 204.436C424.052 204.436 424.796 204.436 425.539 204.435Z" fill="black"/>
<path fill-rule="evenodd" clip-rule="evenodd" d="M362.121 334.99C361.372 334.998 360.624 335.006 359.883 335.014C360.634 335.007 361.378 334.999 362.121 334.99Z" fill="black"/>
<path fill-rule="evenodd" clip-rule="evenodd" d="M344.961 365.471C345.956 365.551 346.951 365.633 347.945 365.713C346.95 365.633 345.956 365.551 344.961 365.471Z" fill="black"/>
<path fill-rule="evenodd" clip-rule="evenodd" d="M343.072 403.27C343.088 402.274 343.104 401.279 343.119 400.285C343.103 401.282 343.088 402.276 343.072 403.27Z" fill="black"/>
<path fill-rule="evenodd" clip-rule="evenodd" d="M428.523 363.5C429.518 363.402 430.514 363.305 431.508 363.207C430.513 363.305 429.518 363.402 428.523 363.5Z" fill="black"/>
<path fill-rule="evenodd" clip-rule="evenodd" d="M496.702 345.82C496.762 344.825 496.821 343.828 496.88 342.836C496.821 343.832 496.761 344.827 496.702 345.82Z" fill="black"/>
<path fill-rule="evenodd" clip-rule="evenodd" d="M509.848 208.282C510.843 208.204 511.837 208.127 512.832 208.05C511.837 208.127 510.843 208.204 509.848 208.282Z" fill="black"/>
<path fill-rule="evenodd" clip-rule="evenodd" d="M408.379 338.743C407.631 338.736 406.882 338.728 406.141 338.722C406.892 338.728 407.636 338.736 408.379 338.743Z" fill="black"/>
<path fill-rule="evenodd" clip-rule="evenodd" d="M343.151 459.227C343.113 458.479 343.077 457.732 343.041 456.988C343.077 457.736 343.113 458.482 343.151 459.227Z" fill="black"/>
<path fill-rule="evenodd" clip-rule="evenodd" d="M426.802 421.176C428.432 425.219 427.517 422.356 427.558 423.29C426.169 423.476 425.916 422.771 426.802 421.176Z" fill="black"/>
<path fill-rule="evenodd" clip-rule="evenodd" d="M358.391 335.043C357.643 335.016 356.893 334.989 356.152 334.961C356.905 334.988 357.647 335.015 358.391 335.043Z" fill="black"/>
<path fill-rule="evenodd" clip-rule="evenodd" d="M510.896 259.273C510.943 258.278 510.991 257.283 511.037 256.289C510.99 257.285 510.942 258.279 510.896 259.273Z" fill="black"/>
<path fill-rule="evenodd" clip-rule="evenodd" d="M343.099 451.766C343.097 450.77 343.094 449.776 343.092 448.781C343.094 449.779 343.096 450.772 343.099 451.766Z" fill="black"/>
<path fill-rule="evenodd" clip-rule="evenodd" d="M343.018 429.383C343.069 428.636 343.122 427.889 343.174 427.145C343.121 427.892 343.069 428.638 343.018 429.383Z" fill="black"/>
<path fill-rule="evenodd" clip-rule="evenodd" d="M498.179 331.645C498.248 330.898 498.318 330.151 498.388 329.406C498.318 330.154 498.248 330.9 498.179 331.645Z" fill="black"/>
<path fill-rule="evenodd" clip-rule="evenodd" d="M333.297 431.621C333.363 432.369 333.43 433.116 333.496 433.859C333.429 433.113 333.363 432.367 333.297 431.621Z" fill="black"/>
<path fill-rule="evenodd" clip-rule="evenodd" d="M331.794 425.652C331.868 426.399 331.941 427.147 332.015 427.891C331.941 427.142 331.868 426.397 331.794 425.652Z" fill="black"/>
<path fill-rule="evenodd" clip-rule="evenodd" d="M481.039 323.438C481.095 322.691 481.151 321.945 481.207 321.199C481.15 321.946 481.095 322.692 481.039 323.438Z" fill="black"/>
<path fill-rule="evenodd" clip-rule="evenodd" d="M100.242 424.651C101.236 424.572 102.231 424.493 103.227 424.416C102.229 424.494 101.235 424.572 100.242 424.651Z" fill="black"/>
<path fill-rule="evenodd" clip-rule="evenodd" d="M474.451 442.812C474.422 443.56 474.393 444.309 474.365 445.051C474.394 444.301 474.423 443.557 474.451 442.812Z" fill="black"/>
<path fill-rule="evenodd" clip-rule="evenodd" d="M486.263 445.051C486.318 444.304 486.373 443.557 486.429 442.812C486.373 443.56 486.318 444.305 486.263 445.051Z" fill="black"/>
<path fill-rule="evenodd" clip-rule="evenodd" d="M481.751 320.453C481.83 319.706 481.909 318.96 481.987 318.215C481.909 318.963 481.83 319.708 481.751 320.453Z" fill="black"/>
<path fill-rule="evenodd" clip-rule="evenodd" d="M106.211 423.934C107.206 423.836 108.201 423.738 109.195 423.641C108.201 423.738 107.205 423.836 106.211 423.934Z" fill="black"/>
<path fill-rule="evenodd" clip-rule="evenodd" d="M422.555 337.978C422.055 337.983 421.555 337.989 421.062 337.995C421.564 337.989 422.06 337.983 422.555 337.978Z" fill="black"/>
<path fill-rule="evenodd" clip-rule="evenodd" d="M343.099 422.668C343.097 421.92 343.094 421.174 343.092 420.43C343.094 421.178 343.097 421.922 343.099 422.668Z" fill="black"/>
<path fill-rule="evenodd" clip-rule="evenodd" d="M487.896 421.176C487.631 420.404 487.501 419.644 488.012 418.938C487.974 419.685 487.935 420.43 487.896 421.176Z" fill="black"/>
<path fill-rule="evenodd" clip-rule="evenodd" d="M475.186 407C475.165 407.747 475.143 408.494 475.123 409.238C475.144 408.49 475.165 407.745 475.186 407Z" fill="black"/>
<path fill-rule="evenodd" clip-rule="evenodd" d="M475.831 480.863C475.877 481.61 475.924 482.358 475.97 483.102C475.924 482.354 475.877 481.608 475.831 480.863Z" fill="black"/>
<path fill-rule="evenodd" clip-rule="evenodd" d="M530.738 209.499C531.485 209.606 532.231 209.712 532.977 209.818C532.23 209.711 531.484 209.605 530.738 209.499Z" fill="black"/>
<path fill-rule="evenodd" clip-rule="evenodd" d="M527.754 209.568C528.755 209.629 529.855 209.148 530.738 209.853L527.754 209.568Z" fill="black"/>
<path fill-rule="evenodd" clip-rule="evenodd" d="M400.172 367.091C401.167 367.087 402.163 367.082 403.156 367.077C402.161 367.082 401.167 367.087 400.172 367.091Z" fill="black"/>
<path fill-rule="evenodd" clip-rule="evenodd" d="M422.555 208.783L425.539 209.042C424.543 208.955 423.55 208.869 422.555 208.783Z" fill="black"/>
<path fill-rule="evenodd" clip-rule="evenodd" d="M373.312 366.889C374.308 366.894 375.302 366.898 376.297 366.902C375.298 367.383 374.303 367.43 373.312 366.889Z" fill="black"/>
<path fill-rule="evenodd" clip-rule="evenodd" d="M346.165 492.055C346.109 491.306 346.052 490.56 345.995 489.816C346.052 490.565 346.109 491.309 346.165 492.055Z" fill="black"/>
<path fill-rule="evenodd" clip-rule="evenodd" d="M454.993 210.031C455.005 209.284 455.015 208.537 455.026 207.793C455.015 208.541 455.005 209.287 454.993 210.031Z" fill="black"/>
<path fill-rule="evenodd" clip-rule="evenodd" d="M391.965 367.204C392.96 367.125 393.955 367.044 394.949 366.964C393.954 367.044 392.96 367.125 391.965 367.204Z" fill="black"/>
<path fill-rule="evenodd" clip-rule="evenodd" d="M476.621 498.77C476.638 499.517 476.655 500.264 476.671 501.008C476.655 500.259 476.638 499.515 476.621 498.77Z" fill="black"/>
<path fill-rule="evenodd" clip-rule="evenodd" d="M479.258 191.148C480.253 191.053 481.247 190.959 482.242 190.864C481.247 190.959 480.253 191.053 479.258 191.148Z" fill="black"/>
<path fill-rule="evenodd" clip-rule="evenodd" d="M492.212 381.633C492.281 380.886 492.349 380.139 492.417 379.395C492.349 380.142 492.28 380.887 492.212 381.633Z" fill="black"/>
<path fill-rule="evenodd" clip-rule="evenodd" d="M526.549 182.426C526.607 181.679 526.663 180.932 526.72 180.188C526.663 180.935 526.606 181.68 526.549 182.426Z" fill="black"/>
<path fill-rule="evenodd" clip-rule="evenodd" d="M455.734 118.262C455.748 119.008 455.762 119.756 455.777 120.5C455.763 119.752 455.749 119.007 455.734 118.262Z" fill="black"/>
<path fill-rule="evenodd" clip-rule="evenodd" d="M429.27 104.335C430.264 104.418 431.26 104.501 432.254 104.583C431.259 104.5 430.264 104.418 429.27 104.335Z" fill="black"/>
<path fill-rule="evenodd" clip-rule="evenodd" d="M280.051 528.387C281.046 528.289 282.04 528.192 283.035 528.094C282.04 528.192 281.046 528.29 280.051 528.387Z" fill="black"/>
<path fill-rule="evenodd" clip-rule="evenodd" d="M430.762 96.9988C430.262 96.9981 429.762 96.9973 429.27 96.9973C429.771 96.9988 430.267 96.9988 430.762 96.9988Z" fill="black"/>
<path fill-rule="evenodd" clip-rule="evenodd" d="M247.223 538.104C248.218 537.59 249.212 537.737 250.207 538.107C249.212 538.106 248.216 538.105 247.223 538.104Z" fill="black"/>
<path fill-rule="evenodd" clip-rule="evenodd" d="M634.445 494.8C636.186 494.71 637.928 494.621 639.668 494.532C637.928 494.621 636.186 494.711 634.445 494.8Z" fill="black"/>
<path fill-rule="evenodd" clip-rule="evenodd" d="M634.445 481.948C633.447 481.971 632.45 481.994 631.461 482.017C632.461 481.994 633.453 481.971 634.445 481.948Z" fill="black"/>
<path fill-rule="evenodd" clip-rule="evenodd" d="M619.523 467.151C620.767 467.056 622.01 466.961 623.254 466.866C622.094 467.595 620.767 467.056 619.523 467.151Z" fill="black"/>
<path fill-rule="evenodd" clip-rule="evenodd" d="M605.348 468.688C606.591 468.598 607.834 468.508 609.078 468.418C607.835 468.508 606.591 468.598 605.348 468.688Z" fill="black"/>
<path fill-rule="evenodd" clip-rule="evenodd" d="M584.457 482.099C585.452 482.021 586.447 481.944 587.441 481.866C586.447 481.944 585.452 482.021 584.457 482.099Z" fill="black"/>
<path fill-rule="evenodd" clip-rule="evenodd" d="M589.68 482.101C590.674 482.022 591.669 481.943 592.664 481.864C591.669 481.943 590.674 482.022 589.68 482.101Z" fill="black"/>
<path fill-rule="evenodd" clip-rule="evenodd" d="M593.41 481.368C594.405 481.28 595.399 481.193 596.394 481.104C595.4 481.192 594.405 481.28 593.41 481.368Z" fill="black"/>
<path fill-rule="evenodd" clip-rule="evenodd" d="M598.633 455.862C597.884 455.868 597.136 455.873 596.394 455.876C597.146 455.87 597.889 455.866 598.633 455.862Z" fill="black"/>
<path fill-rule="evenodd" clip-rule="evenodd" d="M617.285 496.966C618.28 496.882 619.275 496.797 620.269 496.713C619.341 497.365 618.292 496.99 617.285 496.966Z" fill="black"/>
<path fill-rule="evenodd" clip-rule="evenodd" d="M588.934 437.359C589.928 437.265 590.923 437.169 591.918 437.074C590.923 437.169 589.928 437.265 588.934 437.359Z" fill="black"/>
<path fill-rule="evenodd" clip-rule="evenodd" d="M585.203 425.28C584.454 425.28 583.706 425.279 582.965 425.278C583.717 425.279 584.46 425.28 585.203 425.28Z" fill="black"/>
<path fill-rule="evenodd" clip-rule="evenodd" d="M577.742 426.768C577.243 426.771 576.743 426.773 576.25 426.775C576.752 426.773 577.247 426.77 577.742 426.768Z" fill="black"/>
<path fill-rule="evenodd" clip-rule="evenodd" d="M559.836 428.847C559.585 429.46 558.267 429.382 558.347 428.752C558.843 428.783 559.339 428.815 559.836 428.847Z" fill="black"/>
<path fill-rule="evenodd" clip-rule="evenodd" d="M525.097 431.621C525.128 432.367 525.158 433.115 525.188 433.859C525.157 433.112 525.128 432.365 525.097 431.621Z" fill="black"/>
<path fill-rule="evenodd" clip-rule="evenodd" d="M626.984 435.576C627.73 435.563 628.477 435.551 629.223 435.539C628.486 436.065 627.738 435.991 626.984 435.576Z" fill="black"/>
<path fill-rule="evenodd" clip-rule="evenodd" d="M598.633 424.523C598.133 424.53 597.634 424.538 597.141 424.544C597.643 424.537 598.138 424.53 598.633 424.523Z" fill="black"/>
<path fill-rule="evenodd" clip-rule="evenodd" d="M579.234 471.676C580.229 471.583 581.225 471.49 582.219 471.398C581.224 471.49 580.229 471.584 579.234 471.676Z" fill="black"/>
<path fill-rule="evenodd" clip-rule="evenodd" d="M567.297 473.16L570.281 472.899L567.297 473.16Z" fill="black"/>
<path fill-rule="evenodd" clip-rule="evenodd" d="M625.492 495.552C626.487 495.458 627.482 495.365 628.477 495.272C627.482 495.365 626.487 495.458 625.492 495.552Z" fill="black"/>
<path fill-rule="evenodd" clip-rule="evenodd" d="M589.68 500.044C590.676 499.68 591.673 499.556 592.664 500.053C591.669 500.05 590.674 500.047 589.68 500.044Z" fill="black"/>
<path fill-rule="evenodd" clip-rule="evenodd" d="M588.098 397.202L586.695 396.717C588.436 396.696 590.177 396.674 591.918 396.653C591.922 396.654 588.298 397.218 588.098 397.202Z" fill="black"/>
<path fill-rule="evenodd" clip-rule="evenodd" d="M574.758 384.245C573.511 384.244 572.265 384.244 571.027 384.243C572.276 384.244 573.517 384.245 574.758 384.245Z" fill="black"/>
<path fill-rule="evenodd" clip-rule="evenodd" d="M527.754 412.765C528.995 412.268 530.239 412.365 531.484 412.752C530.241 412.756 528.998 412.761 527.754 412.765Z" fill="black"/>
<path fill-rule="evenodd" clip-rule="evenodd" d="M603.109 400.645C602.361 400.654 601.612 400.663 600.871 400.672C601.622 400.662 602.366 400.654 603.109 400.645Z" fill="black"/>
<path fill-rule="evenodd" clip-rule="evenodd" d="M587.441 390.837C588.685 390.918 589.93 391 591.172 391.081C589.929 390.999 588.685 390.918 587.441 390.837Z" fill="black"/>
<path fill-rule="evenodd" clip-rule="evenodd" d="M571.773 398.552C573.017 398.464 574.261 398.377 575.504 398.288C574.261 398.377 573.017 398.464 571.773 398.552Z" fill="black"/>
<path fill-rule="evenodd" clip-rule="evenodd" d="M581.473 397.054C582.467 396.97 583.462 396.886 584.457 396.801C583.462 396.886 582.467 396.97 581.473 397.054Z" fill="black"/>
<path fill-rule="evenodd" clip-rule="evenodd" d="M573.266 390.091C574.261 390.172 575.255 390.254 576.25 390.335C575.255 390.253 574.26 390.172 573.266 390.091Z" fill="black"/>
<path fill-rule="evenodd" clip-rule="evenodd" d="M559.09 404.404C558.59 404.394 558.091 404.383 557.598 404.373C558.099 404.383 558.594 404.394 559.09 404.404Z" fill="black"/>
<path fill-rule="evenodd" clip-rule="evenodd" d="M574.758 396.974C574.258 396.943 573.759 396.912 573.266 396.881C573.767 396.912 574.262 396.943 574.758 396.974Z" fill="black"/>
<path fill-rule="evenodd" clip-rule="evenodd" d="M565.059 396.948C564.559 396.934 564.059 396.92 563.566 396.907C564.068 396.921 564.563 396.935 565.059 396.948Z" fill="black"/>
<path fill-rule="evenodd" clip-rule="evenodd" d="M591.918 396.254C591.918 396.448 594.165 395.467 594.156 396.379L591.918 396.254Z" fill="black"/>
<path fill-rule="evenodd" clip-rule="evenodd" d="M583.711 384.243C583.211 384.244 582.712 384.244 582.219 384.245C582.721 384.244 583.215 384.244 583.711 384.243Z" fill="black"/>
<path fill-rule="evenodd" clip-rule="evenodd" d="M318.848 348.862C319.656 345.565 319.435 342.985 322.313 345.092C323.892 346.248 326.496 352.114 326.298 354.101C326.055 356.552 324.937 357.529 322.631 356.749C319.979 355.851 318.926 351.328 318.848 348.862Z" fill="black"/>
<path fill-rule="evenodd" clip-rule="evenodd" d="M464.209 328.844C470.891 328.844 467.976 335.955 462.406 336.115C459.846 336.188 456.164 335.683 456.994 332.257C457.437 330.429 463.93 327.964 464.209 328.844Z" fill="black"/>
<path fill-rule="evenodd" clip-rule="evenodd" d="M392.543 342.836C397.366 345.17 390.58 355.418 386.197 352.88C380.584 349.633 390.559 344.298 392.543 342.836Z" fill="black"/>
<path fill-rule="evenodd" clip-rule="evenodd" d="M380.806 352.535C382.385 354.257 389.5 360.096 385.578 362.443C380.755 365.33 377.085 355.8 380.806 352.535Z" fill="black"/>
<path fill-rule="evenodd" clip-rule="evenodd" d="M299.955 348.059C298.386 345.024 300.545 337.084 305.336 338.535C310.158 339.996 302.608 347.253 299.955 348.059Z" fill="black"/>
<path fill-rule="evenodd" clip-rule="evenodd" d="M406.394 349.807C409.522 348.548 408.927 352.274 409.4 353.476C409.936 354.842 412.69 358.167 411.999 359.621C410.974 361.778 408.523 360.402 407.192 359.003C404.859 356.548 405.025 352.61 406.394 349.807Z" fill="black"/>
<path fill-rule="evenodd" clip-rule="evenodd" d="M358.719 353.261C356.112 353.261 349.888 345.743 353.545 344.482C358.084 342.917 361.879 353.813 358.719 353.261Z" fill="black"/>
<path fill-rule="evenodd" clip-rule="evenodd" d="M448.823 341.344C451.211 341.933 454.372 348.694 450.773 349.478C446.788 350.347 446.077 343.214 448.823 341.344Z" fill="black"/>
<path fill-rule="evenodd" clip-rule="evenodd" d="M434.345 354.027C432.472 350.421 432.011 342.7 436.583 348.897C437.574 350.239 438.596 349.696 438.088 351.911C437.643 353.844 435.868 354.027 434.345 354.027Z" fill="black"/>
<path fill-rule="evenodd" clip-rule="evenodd" d="M335.698 335.375C337.607 338.248 337.043 347.258 333.055 341.929C331.358 339.664 332.527 335.483 335.698 335.375Z" fill="black"/>
<path fill-rule="evenodd" clip-rule="evenodd" d="M431.648 64.616C435.352 63.6599 436.24 72.3913 434.08 73.3538C431.056 74.7008 431.435 66.0765 431.648 64.616Z" fill="black"/>
<path fill-rule="evenodd" clip-rule="evenodd" d="M665.898 508.207C662.46 508.006 657.645 507.069 662.852 504.629C666.155 503.084 671.067 502.976 674.555 503.61C676.959 504.047 680.567 506.04 676.898 508.624C674.75 510.135 668.509 508.281 665.898 508.207Z" fill="black"/>
<path fill-rule="evenodd" clip-rule="evenodd" d="M662.045 514.438C661.051 514.325 660.058 514.213 659.066 514.102C659.863 512.656 662.179 512.352 662.045 514.438Z" fill="black"/>
<path fill-rule="evenodd" clip-rule="evenodd" d="M666.527 508.063C667.525 508.085 668.522 508.107 669.512 508.128C668.511 508.107 667.519 508.085 666.527 508.063Z" fill="black"/>
</svg>
